<svg xmlns="http://www.w3.org/2000/svg" xmlns:xlink="http://www.w3.org/1999/xlink" width="500" zoomAndPan="magnify" viewBox="0 0 375 374.999991" height="500" preserveAspectRatio="xMidYMid meet" version="1.0"><defs><g/><clipPath id="c317285f6f"><path d="M 184 93.167969 L 248.164062 93.167969 L 248.164062 195.167969 L 184 195.167969 Z M 184 93.167969 " clip-rule="nonzero"/></clipPath><clipPath id="4f4d0b4e27"><path d="M 126.664062 93.167969 L 186 93.167969 L 186 182 L 126.664062 182 Z M 126.664062 93.167969 " clip-rule="nonzero"/></clipPath></defs><rect x="-37.5" width="450" fill="#ffffff" y="-37.499999" height="449.999989" fill-opacity="1"/><rect x="-37.5" width="450" fill="#001219" y="-37.499999" height="449.999989" fill-opacity="1"/><path fill="#26ace2" d="M 153.617188 140.859375 C 153.128906 140.851562 152.628906 140.96875 152.171875 141.230469 C 151.085938 141.859375 150.585938 143.117188 150.867188 144.28125 L 149.636719 144.898438 C 148.875 140.964844 148.976562 136.835938 150.039062 132.792969 C 150.660156 130.4375 151.578125 128.214844 152.757812 126.167969 L 152.125 125.554688 L 154.757812 128.101562 C 154.253906 128.9375 154.210938 130.011719 154.730469 130.914062 C 155.007812 131.394531 155.40625 131.757812 155.863281 131.992188 Z M 156.097656 142.539062 C 156.054688 142.4375 156.003906 142.339844 155.949219 142.246094 C 155.671875 141.765625 155.273438 141.398438 154.816406 141.164062 L 157.0625 132.296875 C 157.515625 132.308594 157.976562 132.207031 158.40625 131.984375 L 164.210938 138.777344 C 163.636719 139.464844 163.332031 140.339844 163.339844 141.222656 Z M 172.171875 127.277344 C 171.644531 127.746094 171.300781 128.367188 171.160156 129.035156 L 159.824219 128.933594 C 159.78125 128.746094 159.71875 128.558594 159.636719 128.375 L 167.117188 122.605469 C 167.832031 123.195312 168.816406 123.394531 169.71875 123.109375 L 172.175781 127.277344 Z M 171.148438 130.273438 L 159.8125 130.175781 C 159.726562 130.535156 159.570312 130.875 159.347656 131.175781 L 165.152344 137.972656 C 165.167969 137.960938 165.1875 137.949219 165.207031 137.9375 C 166.253906 137.332031 167.476562 137.292969 168.511719 137.726562 L 172.101562 132.023438 C 171.882812 131.8125 171.6875 131.570312 171.527344 131.289062 C 171.339844 130.964844 171.214844 130.621094 171.148438 130.273438 Z M 173.152344 132.683594 C 173.683594 132.890625 174.269531 132.953125 174.839844 132.855469 L 178.699219 143.121094 C 178.339844 143.359375 178.050781 143.667969 177.84375 144.019531 L 170.769531 141.722656 C 170.886719 140.917969 170.746094 140.070312 170.308594 139.308594 C 170.105469 138.953125 169.851562 138.644531 169.5625 138.386719 Z M 179.402344 120.320312 C 179.472656 120.582031 179.578125 120.835938 179.71875 121.082031 C 179.816406 121.25 179.925781 121.40625 180.042969 121.546875 L 175.804688 126.832031 C 175.023438 126.425781 174.097656 126.34375 173.238281 126.648438 L 170.78125 122.480469 C 171.238281 122.046875 171.523438 121.484375 171.617188 120.886719 Z M 177.507812 129.386719 L 187.726562 130.421875 C 187.871094 129.929688 188.136719 129.472656 188.503906 129.089844 L 183.8125 122.414062 C 182.890625 122.824219 181.859375 122.769531 181.011719 122.324219 L 176.769531 127.609375 C 176.886719 127.75 176.996094 127.90625 177.09375 128.074219 C 177.332031 128.488281 177.46875 128.9375 177.507812 129.386719 Z M 184.824219 121.699219 C 185.789062 120.691406 186.019531 119.132812 185.285156 117.863281 C 185.25 117.800781 185.210938 117.742188 185.171875 117.683594 L 188.910156 113.953125 C 198.605469 118.695312 202.269531 124.160156 199.910156 130.355469 L 194.042969 130.609375 C 193.96875 130.304688 193.855469 130.007812 193.691406 129.726562 C 192.84375 128.257812 191.027344 127.695312 189.515625 128.375 Z M 182.644531 144.054688 C 182.5625 143.910156 182.46875 143.773438 182.363281 143.652344 L 189.417969 134.304688 C 190.359375 134.769531 191.511719 134.769531 192.492188 134.203125 C 193.390625 133.683594 193.953125 132.800781 194.09375 131.847656 L 199.347656 131.621094 C 198.230469 133.832031 196.371094 136.132812 193.769531 138.519531 C 193.167969 145.15625 190.164062 148.898438 184.757812 149.753906 L 182.476562 147.101562 C 183.113281 146.238281 183.21875 145.042969 182.644531 144.054688 Z M 163.558594 142.445312 L 156.316406 143.757812 C 156.292969 144.253906 156.132812 144.742188 155.855469 145.160156 L 161.671875 151.304688 C 161.707031 151.28125 161.746094 151.257812 161.78125 151.238281 C 162.371094 150.898438 163.023438 150.765625 163.652344 150.820312 L 165.460938 144.550781 C 164.804688 144.234375 164.230469 143.726562 163.839844 143.046875 C 163.726562 142.851562 163.632812 142.648438 163.558594 142.445312 Z M 160.773438 152.15625 C 160.074219 153.144531 159.96875 154.488281 160.613281 155.605469 C 160.957031 156.203125 161.460938 156.644531 162.039062 156.910156 L 160.8125 161.949219 C 160.648438 161.882812 160.496094 161.808594 160.34375 161.730469 C 155.011719 157.855469 151.398438 152.285156 149.910156 146.148438 L 151.421875 145.390625 C 152.265625 146.417969 153.75 146.710938 154.9375 146.023438 C 154.945312 146.019531 154.953125 146.015625 154.957031 146.011719 Z M 178.09375 147.230469 L 166.457031 153.140625 C 166.84375 154.515625 166.269531 156.03125 164.980469 156.777344 C 164.429688 157.09375 163.828125 157.230469 163.242188 157.203125 L 161.992188 162.332031 C 163.886719 162.777344 166.261719 162.605469 169.121094 161.820312 C 171.734375 168.085938 173.804688 171.0625 175.332031 170.753906 L 176.023438 170.351562 C 177.410156 168.964844 178.230469 164.15625 178.488281 155.925781 C 181.089844 154.914062 182.867188 153.121094 183.808594 150.546875 L 181.535156 147.910156 C 180.359375 148.535156 178.921875 148.230469 178.09375 147.230469 Z M 177.464844 145.199219 C 177.433594 145.503906 177.457031 145.820312 177.535156 146.125 L 165.894531 152.035156 C 165.605469 151.664062 165.246094 151.371094 164.84375 151.164062 L 166.648438 144.890625 C 167.417969 144.980469 168.21875 144.832031 168.941406 144.414062 C 169.578125 144.046875 170.070312 143.515625 170.386719 142.902344 Z M 181.378906 142.90625 L 188.425781 133.558594 C 188.277344 133.390625 188.140625 133.207031 188.023438 133.003906 C 187.777344 132.578125 187.636719 132.117188 187.597656 131.65625 L 177.382812 130.617188 C 177.164062 131.34375 176.6875 131.992188 176 132.417969 L 179.859375 142.683594 C 180.378906 142.613281 180.90625 142.691406 181.378906 142.90625 Z M 169.539062 117.769531 C 170.246094 117.941406 170.882812 118.394531 171.277344 119.074219 C 171.382812 119.261719 171.464844 119.453125 171.527344 119.648438 L 179.3125 119.082031 C 179.429688 118.117188 179.988281 117.210938 180.894531 116.6875 C 181.996094 116.050781 183.3125 116.140625 184.300781 116.804688 L 187.589844 113.519531 C 182.347656 111.566406 176.355469 111.597656 169.601562 113.609375 Z M 153.125 124.617188 C 153.09375 124.648438 153.0625 124.679688 153.035156 124.710938 C 153.0625 124.679688 153.09375 124.648438 153.125 124.617188 Z M 153.335938 124.394531 C 153.269531 124.464844 153.210938 124.53125 153.148438 124.59375 C 153.210938 124.53125 153.269531 124.464844 153.335938 124.394531 Z M 153.441406 124.273438 C 153.414062 124.308594 153.382812 124.339844 153.355469 124.371094 C 153.382812 124.339844 153.414062 124.308594 153.441406 124.273438 Z M 153.542969 124.160156 L 153.453125 124.261719 C 153.480469 124.230469 153.511719 124.195312 153.542969 124.160156 Z M 155.742188 127.132812 C 156.769531 126.539062 158.015625 126.679688 158.882812 127.394531 L 166.359375 121.625 C 165.765625 120.335938 166.238281 118.785156 167.492188 118.0625 C 167.75 117.910156 168.023438 117.808594 168.300781 117.75 L 168.359375 114 C 164.910156 115.132812 162.316406 116.433594 160.304688 117.746094 C 157.585938 119.730469 155.242188 122.214844 153.414062 125.078125 L 153.035156 124.710938 L 155.617188 127.210938 C 155.65625 127.183594 155.699219 127.160156 155.742188 127.132812 Z M 155.742188 127.132812 " fill-opacity="1" fill-rule="evenodd"/><g clip-path="url(#c317285f6f)"><path fill="#26ace2" d="M 230.121094 127.132812 L 221.601562 127.132812 L 221.601562 119.453125 L 213.933594 119.453125 L 213.933594 110.925781 L 221.601562 110.925781 L 221.601562 103.25 L 230.121094 103.25 L 230.121094 110.925781 L 237.789062 110.925781 L 237.789062 119.453125 L 230.121094 119.453125 Z M 217.179688 149.039062 C 220.34375 152.234375 220.5 154.261719 217.644531 155.128906 C 219.402344 155.980469 220.28125 156.707031 220.316406 157.539062 C 220.410156 159.523438 218.140625 158.882812 218.570312 161.664062 C 219.773438 169.402344 221.136719 172.453125 210.503906 173.417969 C 202.277344 175.289062 197.089844 182.539062 194.941406 195.167969 C 302.382812 116.210938 219.796875 66.902344 184.117188 108.0625 C 193.777344 109.765625 201.1875 116.292969 206.34375 127.640625 C 210.515625 136.816406 210.269531 137.671875 218.5625 142.28125 C 222.390625 144.40625 220.363281 145.949219 217.179688 149.039062 Z M 217.179688 149.039062 " fill-opacity="1" fill-rule="evenodd"/></g><g clip-path="url(#4f4d0b4e27)"><path fill="#7acde9" d="M 179.808594 107.925781 C 181.550781 105.992188 183.386719 104.140625 185.308594 102.378906 C 138.355469 72.203125 93.648438 120.734375 160.863281 181.722656 C 166.589844 172.710938 155.988281 165.0625 151.28125 157.75 C 135.671875 133.496094 151.992188 109.097656 179.808594 107.925781 Z M 179.808594 107.925781 " fill-opacity="1" fill-rule="evenodd"/></g><g fill="#5e17eb" fill-opacity="1"><g transform="translate(142.417089, 239.882519)"><g><path d="M 28.15625 -27.675781 L 24.082031 -27.675781 C 22.085938 -27.675781 20.847656 -26.757812 20.25 -24.882812 L 17.371094 -15.933594 L 13.9375 -25 C 13.257812 -26.839844 12.019531 -27.675781 10.0625 -27.675781 L 6.390625 -27.675781 C 4.195312 -27.675781 2.996094 -26.480469 3.035156 -24.28125 C 3.074219 -17.292969 3.074219 -10.382812 3.035156 -3.394531 C 2.996094 -1.199219 4.195312 0 6.308594 0 C 8.425781 0 9.585938 -1.199219 9.503906 -3.433594 C 9.34375 -7.589844 9.265625 -11.863281 9.1875 -19.128906 L 9.386719 -19.128906 L 13.578125 -5.992188 C 14.179688 -4.113281 15.097656 -3.195312 16.453125 -3.195312 C 17.773438 -3.195312 18.730469 -4.113281 19.371094 -5.949219 L 23.921875 -19.128906 L 24.082031 -19.128906 L 24.121094 -13.859375 C 24.121094 -10.34375 24.082031 -6.871094 24.042969 -3.394531 C 24.042969 -1.199219 25.242188 0 27.4375 0 L 28.15625 0 C 30.351562 0 31.550781 -1.199219 31.550781 -3.394531 C 31.550781 -6.871094 31.511719 -10.34375 31.511719 -13.859375 C 31.511719 -17.332031 31.550781 -20.808594 31.550781 -24.28125 C 31.550781 -26.480469 30.351562 -27.675781 28.15625 -27.675781 Z M 28.15625 -27.675781 "/></g></g></g><g fill="#5e17eb" fill-opacity="1"><g transform="translate(175.365474, 239.882519)"><g><path d="M 5.671875 -24.882812 C 8.625 -24.882812 9.824219 -25.878906 9.824219 -28.277344 C 9.824219 -30.671875 8.625 -31.671875 5.671875 -31.671875 C 2.714844 -31.671875 1.519531 -30.671875 1.519531 -28.277344 C 1.519531 -25.878906 2.714844 -24.882812 5.671875 -24.882812 Z M 5.789062 0 C 7.988281 0 9.144531 -1.199219 9.105469 -3.394531 C 9.105469 -5.671875 9.066406 -7.90625 9.105469 -10.222656 C 9.144531 -12.660156 9.144531 -15.894531 9.144531 -18.691406 C 9.144531 -20.886719 7.949219 -22.085938 5.75 -22.085938 L 5.710938 -22.085938 C 3.515625 -22.085938 2.316406 -20.886719 2.316406 -18.730469 C 2.355469 -16.214844 2.355469 -12.699219 2.394531 -6.789062 L 2.394531 -3.394531 C 2.394531 -1.199219 3.59375 0 5.789062 0 Z M 5.789062 0 "/></g></g></g><g fill="#5e17eb" fill-opacity="1"><g transform="translate(185.11014, 239.882519)"><g><path d="M 10.464844 -5.832031 L 10.464844 -13.859375 C 10.464844 -17.332031 10.503906 -20.808594 10.503906 -24.28125 C 10.503906 -26.480469 9.304688 -27.675781 7.109375 -27.675781 L 6.390625 -27.675781 C 4.195312 -27.675781 2.996094 -26.480469 3.035156 -24.28125 C 3.035156 -20.808594 3.074219 -17.332031 3.074219 -13.859375 C 3.074219 -10.382812 3.035156 -6.910156 3.035156 -3.394531 C 2.996094 -1.199219 4.195312 0 6.390625 0 L 15.015625 0 C 17.214844 0 18.410156 -1.078125 18.410156 -3.074219 C 18.410156 -5.03125 17.171875 -6.03125 14.9375 -5.949219 C 13.457031 -5.871094 11.941406 -5.871094 10.464844 -5.832031 Z M 10.464844 -5.832031 "/></g></g></g><g fill="#5e17eb" fill-opacity="1"><g transform="translate(203.161821, 239.882519)"><g><path d="M 10.464844 -5.832031 L 10.464844 -13.859375 C 10.464844 -17.332031 10.503906 -20.808594 10.503906 -24.28125 C 10.503906 -26.480469 9.304688 -27.675781 7.109375 -27.675781 L 6.390625 -27.675781 C 4.195312 -27.675781 2.996094 -26.480469 3.035156 -24.28125 C 3.035156 -20.808594 3.074219 -17.332031 3.074219 -13.859375 C 3.074219 -10.382812 3.035156 -6.910156 3.035156 -3.394531 C 2.996094 -1.199219 4.195312 0 6.390625 0 L 15.015625 0 C 17.214844 0 18.410156 -1.078125 18.410156 -3.074219 C 18.410156 -5.03125 17.171875 -6.03125 14.9375 -5.949219 C 13.457031 -5.871094 11.941406 -5.871094 10.464844 -5.832031 Z M 10.464844 -5.832031 "/></g></g></g><g fill="#5e17eb" fill-opacity="1"><g transform="translate(221.213501, 239.882519)"><g><path d="M 5.671875 -24.882812 C 8.625 -24.882812 9.824219 -25.878906 9.824219 -28.277344 C 9.824219 -30.671875 8.625 -31.671875 5.671875 -31.671875 C 2.714844 -31.671875 1.519531 -30.671875 1.519531 -28.277344 C 1.519531 -25.878906 2.714844 -24.882812 5.671875 -24.882812 Z M 5.789062 0 C 7.988281 0 9.144531 -1.199219 9.105469 -3.394531 C 9.105469 -5.671875 9.066406 -7.90625 9.105469 -10.222656 C 9.144531 -12.660156 9.144531 -15.894531 9.144531 -18.691406 C 9.144531 -20.886719 7.949219 -22.085938 5.75 -22.085938 L 5.710938 -22.085938 C 3.515625 -22.085938 2.316406 -20.886719 2.316406 -18.730469 C 2.355469 -16.214844 2.355469 -12.699219 2.394531 -6.789062 L 2.394531 -3.394531 C 2.394531 -1.199219 3.59375 0 5.789062 0 Z M 5.789062 0 "/></g></g></g><g fill="#38b6ff" fill-opacity="1"><g transform="translate(83.994587, 268.669377)"><g><path d="M 9.269531 -9.109375 L 7.929688 -9.109375 C 7.269531 -9.109375 6.863281 -8.808594 6.664062 -8.191406 L 5.71875 -5.246094 L 4.589844 -8.230469 C 4.363281 -8.835938 3.957031 -9.109375 3.3125 -9.109375 L 2.105469 -9.109375 C 1.378906 -9.109375 0.984375 -8.714844 1 -7.992188 C 1.011719 -5.691406 1.011719 -3.417969 1 -1.117188 C 0.984375 -0.394531 1.378906 0 2.078125 0 C 2.773438 0 3.15625 -0.394531 3.128906 -1.128906 C 3.078125 -2.496094 3.050781 -3.90625 3.023438 -6.296875 L 3.089844 -6.296875 L 4.46875 -1.972656 C 4.667969 -1.355469 4.96875 -1.050781 5.417969 -1.050781 C 5.851562 -1.050781 6.167969 -1.355469 6.375 -1.957031 L 7.875 -6.296875 L 7.929688 -6.296875 L 7.941406 -4.5625 C 7.941406 -3.40625 7.929688 -2.261719 7.914062 -1.117188 C 7.914062 -0.394531 8.308594 0 9.03125 0 L 9.269531 0 C 9.992188 0 10.386719 -0.394531 10.386719 -1.117188 C 10.386719 -2.261719 10.375 -3.40625 10.375 -4.5625 C 10.375 -5.707031 10.386719 -6.851562 10.386719 -7.992188 C 10.386719 -8.714844 9.992188 -9.109375 9.269531 -9.109375 Z M 9.269531 -9.109375 "/></g></g></g><g fill="#38b6ff" fill-opacity="1"><g transform="translate(95.884056, 268.669377)"><g><path d="M 3.445312 -1.75 L 3.445312 -3.628906 C 3.996094 -3.617188 4.550781 -3.617188 5.074219 -3.601562 C 5.796875 -3.601562 6.191406 -3.917969 6.191406 -4.496094 C 6.191406 -5.0625 5.796875 -5.378906 5.074219 -5.378906 C 4.550781 -5.363281 3.996094 -5.363281 3.445312 -5.351562 L 3.445312 -7.363281 C 4.167969 -7.347656 4.902344 -7.347656 5.601562 -7.335938 C 6.324219 -7.335938 6.71875 -7.652344 6.71875 -8.230469 C 6.71875 -8.796875 6.324219 -9.109375 5.601562 -9.109375 L 2.105469 -9.109375 C 1.378906 -9.109375 0.984375 -8.714844 1 -7.992188 C 1 -6.851562 1.011719 -5.707031 1.011719 -4.5625 C 1.011719 -3.417969 1 -2.273438 1 -1.117188 C 0.984375 -0.394531 1.378906 0 2.105469 0 L 5.730469 0 C 6.457031 0 6.851562 -0.316406 6.851562 -0.894531 C 6.851562 -1.460938 6.457031 -1.773438 5.730469 -1.773438 C 4.996094 -1.761719 4.21875 -1.761719 3.445312 -1.75 Z M 3.445312 -1.75 "/></g></g></g><g fill="#38b6ff" fill-opacity="1"><g transform="translate(103.832501, 268.669377)"><g><path d="M 6.96875 -9.109375 C 6.269531 -9.109375 5.917969 -8.703125 5.96875 -7.953125 C 6.0625 -6.71875 6.125 -5.441406 6.167969 -4.011719 L 6.140625 -4.011719 L 4.089844 -8.28125 C 3.8125 -8.863281 3.40625 -9.109375 2.773438 -9.109375 L 2.105469 -9.109375 C 1.378906 -9.109375 0.984375 -8.714844 1 -7.992188 C 1.011719 -5.691406 1.011719 -3.417969 1 -1.117188 C 0.984375 -0.394531 1.367188 0 2.050781 0 C 2.734375 0 3.089844 -0.40625 3.050781 -1.15625 C 2.945312 -2.734375 2.878906 -4.234375 2.839844 -6.101562 L 2.867188 -6.101562 L 5.402344 -0.828125 C 5.679688 -0.25 6.085938 0 6.71875 0 L 6.914062 0 C 7.640625 0 8.03125 -0.394531 8.019531 -1.117188 C 8.007812 -3.417969 8.007812 -5.691406 8.019531 -7.992188 C 8.03125 -8.714844 7.664062 -9.109375 6.96875 -9.109375 Z M 6.96875 -9.109375 "/></g></g></g><g fill="#38b6ff" fill-opacity="1"><g transform="translate(113.370496, 268.669377)"><g><path d="M 7.375 -8.230469 C 7.375 -8.808594 6.980469 -9.109375 6.257812 -9.109375 L 1.445312 -9.109375 C 0.722656 -9.109375 0.328125 -8.796875 0.328125 -8.230469 C 0.328125 -7.664062 0.722656 -7.335938 1.460938 -7.335938 C 1.855469 -7.347656 2.234375 -7.347656 2.601562 -7.347656 C 2.601562 -6.429688 2.617188 -5.496094 2.617188 -4.5625 C 2.617188 -3.40625 2.601562 -2.261719 2.589844 -1.117188 C 2.589844 -0.394531 2.984375 0 3.707031 0 L 3.945312 0 C 4.667969 0 5.0625 -0.394531 5.046875 -1.117188 C 5.046875 -2.273438 5.046875 -3.40625 5.046875 -4.5625 L 5.046875 -7.347656 C 5.441406 -7.347656 5.824219 -7.347656 6.246094 -7.335938 C 6.980469 -7.335938 7.375 -7.664062 7.375 -8.230469 Z M 7.375 -8.230469 "/></g></g></g><g fill="#38b6ff" fill-opacity="1"><g transform="translate(121.594812, 268.669377)"><g><path d="M 4.195312 -9.242188 C 2.25 -9.242188 1.105469 -7.742188 0.800781 -3.089844 C 0.761719 -2.484375 0.75 -1.839844 0.734375 -1.128906 C 0.722656 -0.394531 1.117188 0 1.828125 0 C 2.539062 0 2.933594 -0.394531 2.933594 -1.117188 C 2.933594 -1.445312 2.945312 -1.75 2.945312 -2.039062 L 5.273438 -2.039062 C 5.285156 -1.710938 5.285156 -1.378906 5.285156 -1.027344 C 5.285156 -0.355469 5.679688 0 6.402344 0 L 6.601562 0 C 7.324219 0 7.71875 -0.421875 7.703125 -1.183594 C 7.613281 -7.335938 6.480469 -9.242188 4.195312 -9.242188 Z M 2.972656 -3.601562 C 3.0625 -6.546875 3.339844 -7.390625 4.011719 -7.390625 C 4.667969 -7.390625 5.0625 -6.546875 5.21875 -3.601562 Z M 2.972656 -3.601562 "/></g></g></g><g fill="#38b6ff" fill-opacity="1"><g transform="translate(130.554788, 268.669377)"><g><path d="M 3.445312 -1.917969 L 3.445312 -4.5625 C 3.445312 -5.707031 3.457031 -6.851562 3.457031 -7.992188 C 3.457031 -8.714844 3.0625 -9.109375 2.339844 -9.109375 L 2.105469 -9.109375 C 1.378906 -9.109375 0.984375 -8.714844 1 -7.992188 C 1 -6.851562 1.011719 -5.707031 1.011719 -4.5625 C 1.011719 -3.417969 1 -2.273438 1 -1.117188 C 0.984375 -0.394531 1.378906 0 2.105469 0 L 4.945312 0 C 5.667969 0 6.0625 -0.355469 6.0625 -1.011719 C 6.0625 -1.65625 5.652344 -1.984375 4.917969 -1.957031 C 4.429688 -1.933594 3.929688 -1.933594 3.445312 -1.917969 Z M 3.445312 -1.917969 "/></g></g></g><g fill="#38b6ff" fill-opacity="1"><g transform="translate(137.544253, 268.669377)"><g/></g></g><g fill="#38b6ff" fill-opacity="1"><g transform="translate(141.354626, 268.669377)"><g><path d="M 2.105469 0 L 2.339844 0 C 3.0625 0 3.457031 -0.394531 3.457031 -1.117188 L 3.457031 -7.992188 C 3.457031 -8.714844 3.0625 -9.109375 2.339844 -9.109375 L 2.105469 -9.109375 C 1.378906 -9.109375 0.984375 -8.714844 0.984375 -7.992188 L 0.984375 -1.117188 C 0.984375 -0.394531 1.378906 0 2.105469 0 Z M 2.105469 0 "/></g></g></g><g fill="#38b6ff" fill-opacity="1"><g transform="translate(146.321029, 268.669377)"><g><path d="M 3.445312 -1.917969 L 3.445312 -4.5625 C 3.445312 -5.707031 3.457031 -6.851562 3.457031 -7.992188 C 3.457031 -8.714844 3.0625 -9.109375 2.339844 -9.109375 L 2.105469 -9.109375 C 1.378906 -9.109375 0.984375 -8.714844 1 -7.992188 C 1 -6.851562 1.011719 -5.707031 1.011719 -4.5625 C 1.011719 -3.417969 1 -2.273438 1 -1.117188 C 0.984375 -0.394531 1.378906 0 2.105469 0 L 4.945312 0 C 5.667969 0 6.0625 -0.355469 6.0625 -1.011719 C 6.0625 -1.65625 5.652344 -1.984375 4.917969 -1.957031 C 4.429688 -1.933594 3.929688 -1.933594 3.445312 -1.917969 Z M 3.445312 -1.917969 "/></g></g></g><g fill="#38b6ff" fill-opacity="1"><g transform="translate(153.310496, 268.669377)"><g><path d="M 3.445312 -1.917969 L 3.445312 -4.5625 C 3.445312 -5.707031 3.457031 -6.851562 3.457031 -7.992188 C 3.457031 -8.714844 3.0625 -9.109375 2.339844 -9.109375 L 2.105469 -9.109375 C 1.378906 -9.109375 0.984375 -8.714844 1 -7.992188 C 1 -6.851562 1.011719 -5.707031 1.011719 -4.5625 C 1.011719 -3.417969 1 -2.273438 1 -1.117188 C 0.984375 -0.394531 1.378906 0 2.105469 0 L 4.945312 0 C 5.667969 0 6.0625 -0.355469 6.0625 -1.011719 C 6.0625 -1.65625 5.652344 -1.984375 4.917969 -1.957031 C 4.429688 -1.933594 3.929688 -1.933594 3.445312 -1.917969 Z M 3.445312 -1.917969 "/></g></g></g><g fill="#38b6ff" fill-opacity="1"><g transform="translate(160.299964, 268.669377)"><g><path d="M 6.96875 -9.109375 C 6.269531 -9.109375 5.917969 -8.703125 5.96875 -7.953125 C 6.0625 -6.71875 6.125 -5.441406 6.167969 -4.011719 L 6.140625 -4.011719 L 4.089844 -8.28125 C 3.8125 -8.863281 3.40625 -9.109375 2.773438 -9.109375 L 2.105469 -9.109375 C 1.378906 -9.109375 0.984375 -8.714844 1 -7.992188 C 1.011719 -5.691406 1.011719 -3.417969 1 -1.117188 C 0.984375 -0.394531 1.367188 0 2.050781 0 C 2.734375 0 3.089844 -0.40625 3.050781 -1.15625 C 2.945312 -2.734375 2.878906 -4.234375 2.839844 -6.101562 L 2.867188 -6.101562 L 5.402344 -0.828125 C 5.679688 -0.25 6.085938 0 6.71875 0 L 6.914062 0 C 7.640625 0 8.03125 -0.394531 8.019531 -1.117188 C 8.007812 -3.417969 8.007812 -5.691406 8.019531 -7.992188 C 8.03125 -8.714844 7.664062 -9.109375 6.96875 -9.109375 Z M 6.96875 -9.109375 "/></g></g></g><g fill="#38b6ff" fill-opacity="1"><g transform="translate(169.837961, 268.669377)"><g><path d="M 3.445312 -1.75 L 3.445312 -3.628906 C 3.996094 -3.617188 4.550781 -3.617188 5.074219 -3.601562 C 5.796875 -3.601562 6.191406 -3.917969 6.191406 -4.496094 C 6.191406 -5.0625 5.796875 -5.378906 5.074219 -5.378906 C 4.550781 -5.363281 3.996094 -5.363281 3.445312 -5.351562 L 3.445312 -7.363281 C 4.167969 -7.347656 4.902344 -7.347656 5.601562 -7.335938 C 6.324219 -7.335938 6.71875 -7.652344 6.71875 -8.230469 C 6.71875 -8.796875 6.324219 -9.109375 5.601562 -9.109375 L 2.105469 -9.109375 C 1.378906 -9.109375 0.984375 -8.714844 1 -7.992188 C 1 -6.851562 1.011719 -5.707031 1.011719 -4.5625 C 1.011719 -3.417969 1 -2.273438 1 -1.117188 C 0.984375 -0.394531 1.378906 0 2.105469 0 L 5.730469 0 C 6.457031 0 6.851562 -0.316406 6.851562 -0.894531 C 6.851562 -1.460938 6.457031 -1.773438 5.730469 -1.773438 C 4.996094 -1.761719 4.21875 -1.761719 3.445312 -1.75 Z M 3.445312 -1.75 "/></g></g></g><g fill="#38b6ff" fill-opacity="1"><g transform="translate(177.786409, 268.669377)"><g><path d="M 3.851562 0.132812 C 6.21875 0.132812 7.441406 -0.816406 7.441406 -2.628906 C 7.441406 -5.785156 3.050781 -4.417969 3.050781 -6.546875 C 3.050781 -7.179688 3.300781 -7.597656 4.0625 -7.597656 C 4.695312 -7.597656 5.0625 -7.414062 5.179688 -6.863281 C 5.335938 -6.125 5.546875 -5.730469 6.21875 -5.730469 C 6.890625 -5.730469 7.347656 -6.101562 7.296875 -6.824219 C 7.179688 -8.375 6.152344 -9.242188 4.101562 -9.242188 C 1.984375 -9.242188 0.777344 -8.46875 0.777344 -6.496094 C 0.777344 -3.273438 4.96875 -4.300781 4.96875 -2.472656 C 4.96875 -1.933594 4.640625 -1.667969 3.929688 -1.667969 C 3.511719 -1.667969 3.207031 -1.75 3.011719 -1.933594 C 2.5625 -2.417969 2.445312 -2.800781 1.8125 -2.800781 L 1.695312 -2.800781 C 1.027344 -2.800781 0.527344 -2.378906 0.722656 -1.65625 C 1.050781 -0.488281 2.105469 0.132812 3.851562 0.132812 Z M 3.851562 0.132812 "/></g></g></g><g fill="#38b6ff" fill-opacity="1"><g transform="translate(186.260323, 268.669377)"><g><path d="M 3.851562 0.132812 C 6.21875 0.132812 7.441406 -0.816406 7.441406 -2.628906 C 7.441406 -5.785156 3.050781 -4.417969 3.050781 -6.546875 C 3.050781 -7.179688 3.300781 -7.597656 4.0625 -7.597656 C 4.695312 -7.597656 5.0625 -7.414062 5.179688 -6.863281 C 5.335938 -6.125 5.546875 -5.730469 6.21875 -5.730469 C 6.890625 -5.730469 7.347656 -6.101562 7.296875 -6.824219 C 7.179688 -8.375 6.152344 -9.242188 4.101562 -9.242188 C 1.984375 -9.242188 0.777344 -8.46875 0.777344 -6.496094 C 0.777344 -3.273438 4.96875 -4.300781 4.96875 -2.472656 C 4.96875 -1.933594 4.640625 -1.667969 3.929688 -1.667969 C 3.511719 -1.667969 3.207031 -1.75 3.011719 -1.933594 C 2.5625 -2.417969 2.445312 -2.800781 1.8125 -2.800781 L 1.695312 -2.800781 C 1.027344 -2.800781 0.527344 -2.378906 0.722656 -1.65625 C 1.050781 -0.488281 2.105469 0.132812 3.851562 0.132812 Z M 3.851562 0.132812 "/></g></g></g><g fill="#38b6ff" fill-opacity="1"><g transform="translate(194.734238, 268.669377)"><g/></g></g><g fill="#38b6ff" fill-opacity="1"><g transform="translate(198.544617, 268.669377)"><g><path d="M 2.105469 0 L 2.339844 0 C 3.0625 0 3.457031 -0.394531 3.457031 -1.117188 L 3.457031 -7.992188 C 3.457031 -8.714844 3.0625 -9.109375 2.339844 -9.109375 L 2.105469 -9.109375 C 1.378906 -9.109375 0.984375 -8.714844 0.984375 -7.992188 L 0.984375 -1.117188 C 0.984375 -0.394531 1.378906 0 2.105469 0 Z M 2.105469 0 "/></g></g></g><g fill="#38b6ff" fill-opacity="1"><g transform="translate(203.51102, 268.669377)"><g><path d="M 6.96875 -9.109375 C 6.269531 -9.109375 5.917969 -8.703125 5.96875 -7.953125 C 6.0625 -6.71875 6.125 -5.441406 6.167969 -4.011719 L 6.140625 -4.011719 L 4.089844 -8.28125 C 3.8125 -8.863281 3.40625 -9.109375 2.773438 -9.109375 L 2.105469 -9.109375 C 1.378906 -9.109375 0.984375 -8.714844 1 -7.992188 C 1.011719 -5.691406 1.011719 -3.417969 1 -1.117188 C 0.984375 -0.394531 1.367188 0 2.050781 0 C 2.734375 0 3.089844 -0.40625 3.050781 -1.15625 C 2.945312 -2.734375 2.878906 -4.234375 2.839844 -6.101562 L 2.867188 -6.101562 L 5.402344 -0.828125 C 5.679688 -0.25 6.085938 0 6.71875 0 L 6.914062 0 C 7.640625 0 8.03125 -0.394531 8.019531 -1.117188 C 8.007812 -3.417969 8.007812 -5.691406 8.019531 -7.992188 C 8.03125 -8.714844 7.664062 -9.109375 6.96875 -9.109375 Z M 6.96875 -9.109375 "/></g></g></g><g fill="#38b6ff" fill-opacity="1"><g transform="translate(213.049018, 268.669377)"><g><path d="M 7.375 -8.230469 C 7.375 -8.808594 6.980469 -9.109375 6.257812 -9.109375 L 1.445312 -9.109375 C 0.722656 -9.109375 0.328125 -8.796875 0.328125 -8.230469 C 0.328125 -7.664062 0.722656 -7.335938 1.460938 -7.335938 C 1.855469 -7.347656 2.234375 -7.347656 2.601562 -7.347656 C 2.601562 -6.429688 2.617188 -5.496094 2.617188 -4.5625 C 2.617188 -3.40625 2.601562 -2.261719 2.589844 -1.117188 C 2.589844 -0.394531 2.984375 0 3.707031 0 L 3.945312 0 C 4.667969 0 5.0625 -0.394531 5.046875 -1.117188 C 5.046875 -2.273438 5.046875 -3.40625 5.046875 -4.5625 L 5.046875 -7.347656 C 5.441406 -7.347656 5.824219 -7.347656 6.246094 -7.335938 C 6.980469 -7.335938 7.375 -7.664062 7.375 -8.230469 Z M 7.375 -8.230469 "/></g></g></g><g fill="#38b6ff" fill-opacity="1"><g transform="translate(221.273337, 268.669377)"><g><path d="M 3.445312 -1.75 L 3.445312 -3.628906 C 3.996094 -3.617188 4.550781 -3.617188 5.074219 -3.601562 C 5.796875 -3.601562 6.191406 -3.917969 6.191406 -4.496094 C 6.191406 -5.0625 5.796875 -5.378906 5.074219 -5.378906 C 4.550781 -5.363281 3.996094 -5.363281 3.445312 -5.351562 L 3.445312 -7.363281 C 4.167969 -7.347656 4.902344 -7.347656 5.601562 -7.335938 C 6.324219 -7.335938 6.71875 -7.652344 6.71875 -8.230469 C 6.71875 -8.796875 6.324219 -9.109375 5.601562 -9.109375 L 2.105469 -9.109375 C 1.378906 -9.109375 0.984375 -8.714844 1 -7.992188 C 1 -6.851562 1.011719 -5.707031 1.011719 -4.5625 C 1.011719 -3.417969 1 -2.273438 1 -1.117188 C 0.984375 -0.394531 1.378906 0 2.105469 0 L 5.730469 0 C 6.457031 0 6.851562 -0.316406 6.851562 -0.894531 C 6.851562 -1.460938 6.457031 -1.773438 5.730469 -1.773438 C 4.996094 -1.761719 4.21875 -1.761719 3.445312 -1.75 Z M 3.445312 -1.75 "/></g></g></g><g fill="#38b6ff" fill-opacity="1"><g transform="translate(229.221784, 268.669377)"><g><path d="M 3.445312 -1.917969 L 3.445312 -4.5625 C 3.445312 -5.707031 3.457031 -6.851562 3.457031 -7.992188 C 3.457031 -8.714844 3.0625 -9.109375 2.339844 -9.109375 L 2.105469 -9.109375 C 1.378906 -9.109375 0.984375 -8.714844 1 -7.992188 C 1 -6.851562 1.011719 -5.707031 1.011719 -4.5625 C 1.011719 -3.417969 1 -2.273438 1 -1.117188 C 0.984375 -0.394531 1.378906 0 2.105469 0 L 4.945312 0 C 5.667969 0 6.0625 -0.355469 6.0625 -1.011719 C 6.0625 -1.65625 5.652344 -1.984375 4.917969 -1.957031 C 4.429688 -1.933594 3.929688 -1.933594 3.445312 -1.917969 Z M 3.445312 -1.917969 "/></g></g></g><g fill="#38b6ff" fill-opacity="1"><g transform="translate(236.211252, 268.669377)"><g><path d="M 3.445312 -1.917969 L 3.445312 -4.5625 C 3.445312 -5.707031 3.457031 -6.851562 3.457031 -7.992188 C 3.457031 -8.714844 3.0625 -9.109375 2.339844 -9.109375 L 2.105469 -9.109375 C 1.378906 -9.109375 0.984375 -8.714844 1 -7.992188 C 1 -6.851562 1.011719 -5.707031 1.011719 -4.5625 C 1.011719 -3.417969 1 -2.273438 1 -1.117188 C 0.984375 -0.394531 1.378906 0 2.105469 0 L 4.945312 0 C 5.667969 0 6.0625 -0.355469 6.0625 -1.011719 C 6.0625 -1.65625 5.652344 -1.984375 4.917969 -1.957031 C 4.429688 -1.933594 3.929688 -1.933594 3.445312 -1.917969 Z M 3.445312 -1.917969 "/></g></g></g><g fill="#38b6ff" fill-opacity="1"><g transform="translate(243.200719, 268.669377)"><g><path d="M 2.105469 0 L 2.339844 0 C 3.0625 0 3.457031 -0.394531 3.457031 -1.117188 L 3.457031 -7.992188 C 3.457031 -8.714844 3.0625 -9.109375 2.339844 -9.109375 L 2.105469 -9.109375 C 1.378906 -9.109375 0.984375 -8.714844 0.984375 -7.992188 L 0.984375 -1.117188 C 0.984375 -0.394531 1.378906 0 2.105469 0 Z M 2.105469 0 "/></g></g></g><g fill="#38b6ff" fill-opacity="1"><g transform="translate(248.167122, 268.669377)"><g><path d="M 4.707031 0.132812 C 6.191406 0.132812 7.007812 -0.316406 7.558594 -0.894531 C 7.796875 -1.15625 7.863281 -1.484375 7.863281 -2.039062 L 7.863281 -3.824219 C 7.863281 -4.550781 7.46875 -4.945312 6.746094 -4.945312 L 5.546875 -4.945312 C 4.824219 -4.945312 4.429688 -4.640625 4.429688 -4.101562 C 4.429688 -3.5625 4.824219 -3.261719 5.546875 -3.261719 L 5.757812 -3.261719 L 5.757812 -2.25 C 5.757812 -1.90625 5.246094 -1.710938 4.640625 -1.710938 C 3.785156 -1.710938 3.0625 -2.25 3.0625 -4.5625 C 3.0625 -6.707031 3.429688 -7.46875 4.535156 -7.46875 C 4.96875 -7.46875 5.257812 -7.347656 5.378906 -7.046875 C 5.640625 -6.375 5.730469 -6.007812 6.414062 -6.007812 L 6.574219 -6.007812 C 7.296875 -6.007812 7.796875 -6.414062 7.664062 -7.140625 C 7.390625 -8.519531 6.296875 -9.242188 4.523438 -9.242188 C 1.933594 -9.242188 0.65625 -7.679688 0.65625 -4.5625 C 0.65625 -1.433594 1.90625 0.132812 4.707031 0.132812 Z M 4.707031 0.132812 "/></g></g></g><g fill="#38b6ff" fill-opacity="1"><g transform="translate(257.205917, 268.669377)"><g><path d="M 3.445312 -1.75 L 3.445312 -3.628906 C 3.996094 -3.617188 4.550781 -3.617188 5.074219 -3.601562 C 5.796875 -3.601562 6.191406 -3.917969 6.191406 -4.496094 C 6.191406 -5.0625 5.796875 -5.378906 5.074219 -5.378906 C 4.550781 -5.363281 3.996094 -5.363281 3.445312 -5.351562 L 3.445312 -7.363281 C 4.167969 -7.347656 4.902344 -7.347656 5.601562 -7.335938 C 6.324219 -7.335938 6.71875 -7.652344 6.71875 -8.230469 C 6.71875 -8.796875 6.324219 -9.109375 5.601562 -9.109375 L 2.105469 -9.109375 C 1.378906 -9.109375 0.984375 -8.714844 1 -7.992188 C 1 -6.851562 1.011719 -5.707031 1.011719 -4.5625 C 1.011719 -3.417969 1 -2.273438 1 -1.117188 C 0.984375 -0.394531 1.378906 0 2.105469 0 L 5.730469 0 C 6.457031 0 6.851562 -0.316406 6.851562 -0.894531 C 6.851562 -1.460938 6.457031 -1.773438 5.730469 -1.773438 C 4.996094 -1.761719 4.21875 -1.761719 3.445312 -1.75 Z M 3.445312 -1.75 "/></g></g></g><g fill="#38b6ff" fill-opacity="1"><g transform="translate(265.154365, 268.669377)"><g><path d="M 6.96875 -9.109375 C 6.269531 -9.109375 5.917969 -8.703125 5.96875 -7.953125 C 6.0625 -6.71875 6.125 -5.441406 6.167969 -4.011719 L 6.140625 -4.011719 L 4.089844 -8.28125 C 3.8125 -8.863281 3.40625 -9.109375 2.773438 -9.109375 L 2.105469 -9.109375 C 1.378906 -9.109375 0.984375 -8.714844 1 -7.992188 C 1.011719 -5.691406 1.011719 -3.417969 1 -1.117188 C 0.984375 -0.394531 1.367188 0 2.050781 0 C 2.734375 0 3.089844 -0.40625 3.050781 -1.15625 C 2.945312 -2.734375 2.878906 -4.234375 2.839844 -6.101562 L 2.867188 -6.101562 L 5.402344 -0.828125 C 5.679688 -0.25 6.085938 0 6.71875 0 L 6.914062 0 C 7.640625 0 8.03125 -0.394531 8.019531 -1.117188 C 8.007812 -3.417969 8.007812 -5.691406 8.019531 -7.992188 C 8.03125 -8.714844 7.664062 -9.109375 6.96875 -9.109375 Z M 6.96875 -9.109375 "/></g></g></g><g fill="#38b6ff" fill-opacity="1"><g transform="translate(274.692363, 268.669377)"><g><path d="M 4.429688 0.132812 C 6.3125 0.132812 7.492188 -0.605469 7.757812 -2.207031 C 7.886719 -2.972656 7.402344 -3.390625 6.679688 -3.390625 L 6.664062 -3.390625 C 5.980469 -3.390625 5.707031 -3.023438 5.484375 -2.328125 C 5.324219 -1.855469 5.007812 -1.683594 4.445312 -1.683594 C 3.695312 -1.683594 3.167969 -2.234375 3.167969 -4.5625 C 3.167969 -6.707031 3.535156 -7.46875 4.445312 -7.46875 C 5.113281 -7.46875 5.429688 -7.203125 5.535156 -6.519531 C 5.640625 -5.773438 5.917969 -5.363281 6.640625 -5.363281 L 6.71875 -5.363281 C 7.429688 -5.363281 7.914062 -5.746094 7.847656 -6.480469 C 7.691406 -8.269531 6.46875 -9.242188 4.523438 -9.242188 C 1.933594 -9.242188 0.644531 -7.679688 0.644531 -4.5625 C 0.644531 -1.433594 1.8125 0.132812 4.429688 0.132812 Z M 4.429688 0.132812 "/></g></g></g><g fill="#38b6ff" fill-opacity="1"><g transform="translate(283.560377, 268.669377)"><g><path d="M 3.445312 -1.75 L 3.445312 -3.628906 C 3.996094 -3.617188 4.550781 -3.617188 5.074219 -3.601562 C 5.796875 -3.601562 6.191406 -3.917969 6.191406 -4.496094 C 6.191406 -5.0625 5.796875 -5.378906 5.074219 -5.378906 C 4.550781 -5.363281 3.996094 -5.363281 3.445312 -5.351562 L 3.445312 -7.363281 C 4.167969 -7.347656 4.902344 -7.347656 5.601562 -7.335938 C 6.324219 -7.335938 6.71875 -7.652344 6.71875 -8.230469 C 6.71875 -8.796875 6.324219 -9.109375 5.601562 -9.109375 L 2.105469 -9.109375 C 1.378906 -9.109375 0.984375 -8.714844 1 -7.992188 C 1 -6.851562 1.011719 -5.707031 1.011719 -4.5625 C 1.011719 -3.417969 1 -2.273438 1 -1.117188 C 0.984375 -0.394531 1.378906 0 2.105469 0 L 5.730469 0 C 6.457031 0 6.851562 -0.316406 6.851562 -0.894531 C 6.851562 -1.460938 6.457031 -1.773438 5.730469 -1.773438 C 4.996094 -1.761719 4.21875 -1.761719 3.445312 -1.75 Z M 3.445312 -1.75 "/></g></g></g></svg>