<svg xmlns="http://www.w3.org/2000/svg" xmlns:xlink="http://www.w3.org/1999/xlink" width="500" zoomAndPan="magnify" viewBox="0 0 375 374.999991" height="500" preserveAspectRatio="xMidYMid meet" version="1.0"><defs><g/><clipPath id="3010cd19e8"><path d="M 180 11.089844 L 309.867188 11.089844 L 309.867188 215.839844 L 180 215.839844 Z M 180 11.089844 " clip-rule="nonzero"/></clipPath><clipPath id="7fbaeba30b"><path d="M 65.367188 11.089844 L 184 11.089844 L 184 189 L 65.367188 189 Z M 65.367188 11.089844 " clip-rule="nonzero"/></clipPath></defs><rect x="-37.5" width="450" fill="#ffffff" y="-37.499999" height="449.999989" fill-opacity="1"/><rect x="-37.5" width="450" fill="#02142e" y="-37.499999" height="449.999989" fill-opacity="1"/><path fill="#7acde9" d="M 119.558594 106.855469 C 118.574219 106.832031 117.570312 107.070312 116.65625 107.597656 C 114.46875 108.859375 113.464844 111.386719 114.03125 113.71875 L 111.558594 114.960938 C 110.027344 107.0625 110.226562 98.769531 112.359375 90.65625 C 113.609375 85.921875 115.460938 81.457031 117.828125 77.347656 L 116.554688 76.117188 L 121.847656 81.234375 C 120.839844 82.910156 120.75 85.066406 121.796875 86.882812 C 122.351562 87.84375 123.152344 88.578125 124.070312 89.046875 Z M 124.542969 110.222656 C 124.453125 110.023438 124.359375 109.824219 124.246094 109.632812 C 123.691406 108.671875 122.890625 107.9375 121.96875 107.464844 L 126.484375 89.65625 C 127.398438 89.679688 128.324219 89.476562 129.183594 89.027344 L 140.855469 102.671875 C 139.699219 104.054688 139.085938 105.804688 139.105469 107.582031 Z M 156.863281 79.578125 C 155.800781 80.523438 155.105469 81.769531 154.828125 83.109375 L 132.039062 82.90625 C 131.953125 82.523438 131.828125 82.148438 131.660156 81.78125 L 146.695312 70.199219 C 148.136719 71.386719 150.113281 71.785156 151.925781 71.207031 Z M 154.804688 85.597656 L 132.015625 85.394531 C 131.839844 86.117188 131.523438 86.804688 131.074219 87.410156 L 142.746094 101.054688 C 142.78125 101.03125 142.820312 101.011719 142.859375 100.988281 C 144.964844 99.769531 147.417969 99.691406 149.503906 100.5625 L 156.722656 89.109375 C 156.277344 88.6875 155.882812 88.195312 155.5625 87.636719 C 155.183594 86.988281 154.9375 86.296875 154.804688 85.597656 Z M 158.828125 90.433594 C 159.898438 90.847656 161.074219 90.976562 162.226562 90.78125 L 169.984375 111.394531 C 169.261719 111.871094 168.683594 112.492188 168.261719 113.195312 L 154.039062 108.585938 C 154.277344 106.96875 153.996094 105.261719 153.113281 103.738281 C 152.703125 103.023438 152.191406 102.40625 151.613281 101.886719 Z M 171.394531 65.609375 C 171.539062 66.132812 171.75 66.644531 172.035156 67.140625 C 172.230469 67.476562 172.445312 67.785156 172.6875 68.074219 L 164.160156 78.683594 C 162.597656 77.871094 160.730469 77.703125 159.007812 78.316406 L 154.066406 69.945312 C 154.980469 69.078125 155.554688 67.949219 155.742188 66.746094 Z M 167.589844 83.8125 L 188.128906 85.898438 C 188.425781 84.90625 188.957031 83.984375 189.691406 83.222656 L 180.261719 69.808594 C 178.410156 70.636719 176.335938 70.523438 174.628906 69.628906 L 166.101562 80.242188 C 166.339844 80.53125 166.558594 80.84375 166.753906 81.175781 C 167.238281 82.011719 167.511719 82.910156 167.589844 83.8125 Z M 182.292969 68.378906 C 184.234375 66.355469 184.695312 63.226562 183.222656 60.675781 C 183.152344 60.554688 183.078125 60.433594 183 60.3125 L 190.507812 52.828125 C 210 62.34375 217.371094 73.320312 212.621094 85.757812 L 200.828125 86.265625 C 200.679688 85.660156 200.449219 85.0625 200.121094 84.496094 C 198.417969 81.546875 194.769531 80.414062 191.726562 81.785156 Z M 177.917969 113.265625 C 177.75 112.972656 177.5625 112.703125 177.351562 112.457031 L 191.527344 93.691406 C 193.429688 94.625 195.742188 94.621094 197.714844 93.484375 C 199.519531 92.441406 200.648438 90.667969 200.929688 88.753906 L 211.492188 88.300781 C 209.25 92.738281 205.511719 97.355469 200.277344 102.15625 C 199.070312 115.480469 193.03125 122.996094 182.160156 124.707031 L 177.574219 119.386719 C 178.855469 117.648438 179.066406 115.25 177.917969 113.265625 Z M 139.546875 110.03125 L 124.980469 112.671875 C 124.9375 113.667969 124.617188 114.648438 124.0625 115.484375 L 135.753906 127.824219 C 135.824219 127.777344 135.898438 127.730469 135.972656 127.6875 C 137.15625 127.007812 138.46875 126.742188 139.734375 126.851562 L 143.367188 114.261719 C 142.046875 113.628906 140.894531 112.605469 140.109375 111.242188 C 139.878906 110.847656 139.695312 110.445312 139.546875 110.03125 Z M 133.949219 129.535156 C 132.539062 131.519531 132.328125 134.21875 133.625 136.460938 C 134.3125 137.65625 135.328125 138.542969 136.484375 139.082031 L 134.019531 149.199219 C 133.695312 149.0625 133.386719 148.917969 133.078125 148.757812 C 122.359375 140.976562 115.101562 129.792969 112.101562 117.46875 L 115.144531 115.949219 C 116.839844 118.007812 119.824219 118.601562 122.210938 117.222656 C 122.226562 117.214844 122.238281 117.203125 122.253906 117.199219 Z M 168.769531 119.640625 L 145.371094 131.507812 C 146.152344 134.269531 144.996094 137.3125 142.398438 138.8125 C 141.296875 139.453125 140.085938 139.722656 138.90625 139.667969 L 136.394531 149.964844 C 140.203125 150.855469 144.976562 150.511719 150.722656 148.941406 C 155.976562 161.515625 160.140625 167.492188 163.214844 166.875 L 164.605469 166.070312 C 167.390625 163.289062 169.042969 153.632812 169.554688 137.105469 C 174.792969 135.074219 178.359375 131.472656 180.25 126.304688 L 175.6875 121.007812 C 173.324219 122.261719 170.433594 121.648438 168.769531 119.640625 Z M 167.5 115.566406 C 167.441406 116.179688 167.484375 116.808594 167.640625 117.421875 L 144.242188 129.289062 C 143.660156 128.542969 142.933594 127.957031 142.125 127.542969 L 145.753906 114.949219 C 147.300781 115.128906 148.914062 114.828125 150.363281 113.992188 C 151.648438 113.246094 152.632812 112.183594 153.269531 110.957031 L 167.496094 115.566406 Z M 175.367188 110.957031 L 189.539062 92.191406 C 189.238281 91.859375 188.964844 91.484375 188.730469 91.078125 C 188.234375 90.222656 187.953125 89.296875 187.875 88.375 L 167.339844 86.289062 C 166.894531 87.742188 165.941406 89.046875 164.554688 89.902344 L 172.3125 110.515625 C 173.355469 110.375 174.417969 110.53125 175.367188 110.957031 Z M 151.5625 60.488281 C 152.984375 60.835938 154.269531 61.746094 155.058594 63.109375 C 155.273438 63.484375 155.441406 63.867188 155.5625 64.265625 L 171.214844 63.125 C 171.453125 61.183594 172.570312 59.371094 174.398438 58.3125 C 176.609375 57.039062 179.257812 57.214844 181.242188 58.550781 L 187.855469 51.957031 C 177.320312 48.035156 165.269531 48.09375 151.695312 52.132812 Z M 118.566406 74.242188 C 118.503906 74.304688 118.445312 74.367188 118.382812 74.425781 C 118.445312 74.367188 118.503906 74.304688 118.566406 74.242188 Z M 118.988281 73.789062 C 118.863281 73.929688 118.738281 74.0625 118.613281 74.191406 C 118.738281 74.0625 118.863281 73.929688 118.988281 73.789062 Z M 119.207031 73.550781 C 119.144531 73.617188 119.089844 73.679688 119.03125 73.746094 C 119.089844 73.679688 119.144531 73.617188 119.207031 73.550781 Z M 119.40625 73.320312 L 119.226562 73.523438 C 119.285156 73.457031 119.347656 73.390625 119.40625 73.320312 Z M 123.828125 79.292969 C 125.890625 78.101562 128.398438 78.382812 130.140625 79.8125 L 145.175781 68.226562 C 143.980469 65.640625 144.933594 62.527344 147.449219 61.074219 C 147.96875 60.769531 148.515625 60.566406 149.074219 60.445312 L 149.191406 52.914062 C 142.261719 55.195312 137.042969 57.800781 133.003906 60.441406 C 127.535156 64.425781 122.824219 69.414062 119.148438 75.164062 L 118.386719 74.425781 L 123.582031 79.445312 C 123.660156 79.394531 123.746094 79.339844 123.832031 79.292969 Z M 123.828125 79.292969 " fill-opacity="1" fill-rule="evenodd"/><g clip-path="url(#3010cd19e8)"><path fill="#7acde9" d="M 273.359375 79.285156 L 256.234375 79.285156 L 256.234375 63.871094 L 240.816406 63.871094 L 240.816406 46.746094 L 256.234375 46.746094 L 256.234375 31.332031 L 273.359375 31.332031 L 273.359375 46.746094 L 288.777344 46.746094 L 288.777344 63.871094 L 273.359375 63.871094 Z M 247.34375 123.273438 C 253.707031 129.6875 254.015625 133.765625 248.277344 135.503906 C 251.816406 137.214844 253.578125 138.667969 253.652344 140.347656 C 253.835938 144.328125 249.277344 143.039062 250.140625 148.625 C 252.554688 164.164062 255.300781 170.285156 233.921875 172.222656 C 217.386719 175.984375 206.960938 190.542969 202.636719 215.894531 C 418.640625 57.355469 252.605469 -41.648438 180.875 41 C 200.300781 44.414062 215.195312 57.519531 225.5625 80.3125 C 233.945312 98.734375 233.453125 100.453125 250.125 109.703125 C 257.820312 113.976562 253.746094 117.074219 247.34375 123.273438 Z M 247.34375 123.273438 " fill-opacity="1" fill-rule="evenodd"/></g><g clip-path="url(#7fbaeba30b)"><path fill="#7acde9" d="M 172.210938 40.722656 C 175.71875 36.839844 179.410156 33.125 183.269531 29.582031 C 88.875 -31.003906 -1.003906 66.441406 134.128906 188.902344 C 145.636719 170.808594 124.328125 155.449219 114.863281 140.765625 C 83.480469 92.066406 116.292969 43.074219 172.210938 40.722656 Z M 172.210938 40.722656 " fill-opacity="1" fill-rule="evenodd"/></g><g fill="#ffffff" fill-opacity="1"><g transform="translate(113.890209, 271.138253)"><g><path d="M 39.242188 -38.574219 L 33.5625 -38.574219 C 30.78125 -38.574219 29.054688 -37.292969 28.21875 -34.675781 L 24.210938 -22.210938 L 19.425781 -34.84375 C 18.480469 -37.40625 16.753906 -38.574219 14.027344 -38.574219 L 8.90625 -38.574219 C 5.84375 -38.574219 4.175781 -36.902344 4.230469 -33.84375 C 4.285156 -24.101562 4.285156 -14.472656 4.230469 -4.730469 C 4.175781 -1.667969 5.84375 0 8.792969 0 C 11.746094 0 13.359375 -1.667969 13.246094 -4.785156 C 13.023438 -10.574219 12.914062 -16.53125 12.800781 -26.660156 L 13.082031 -26.660156 L 18.925781 -8.347656 C 19.761719 -5.734375 21.039062 -4.453125 22.933594 -4.453125 C 24.769531 -4.453125 26.105469 -5.734375 26.996094 -8.292969 L 33.339844 -26.660156 L 33.5625 -26.660156 L 33.621094 -19.316406 C 33.621094 -14.417969 33.5625 -9.574219 33.507812 -4.730469 C 33.507812 -1.667969 35.179688 0 38.238281 0 L 39.242188 0 C 42.304688 0 43.972656 -1.667969 43.972656 -4.730469 C 43.972656 -9.574219 43.917969 -14.417969 43.917969 -19.316406 C 43.917969 -24.15625 43.972656 -29 43.972656 -33.84375 C 43.972656 -36.902344 42.304688 -38.574219 39.242188 -38.574219 Z M 39.242188 -38.574219 "/></g></g></g><g fill="#ffffff" fill-opacity="1"><g transform="translate(159.81099, 271.138253)"><g><path d="M 7.902344 -34.675781 C 12.023438 -34.675781 13.691406 -36.070312 13.691406 -39.410156 C 13.691406 -42.75 12.023438 -44.140625 7.902344 -44.140625 C 3.785156 -44.140625 2.113281 -42.75 2.113281 -39.410156 C 2.113281 -36.070312 3.785156 -34.675781 7.902344 -34.675781 Z M 8.070312 0 C 11.132812 0 12.746094 -1.667969 12.691406 -4.730469 C 12.691406 -7.902344 12.636719 -11.019531 12.691406 -14.25 C 12.746094 -17.644531 12.746094 -22.152344 12.746094 -26.050781 C 12.746094 -29.109375 11.078125 -30.78125 8.015625 -30.78125 L 7.960938 -30.78125 C 4.898438 -30.78125 3.226562 -29.109375 3.226562 -26.105469 C 3.285156 -22.597656 3.285156 -17.699219 3.339844 -9.460938 L 3.339844 -4.730469 C 3.339844 -1.667969 5.007812 0 8.070312 0 Z M 8.070312 0 "/></g></g></g><g fill="#ffffff" fill-opacity="1"><g transform="translate(173.392314, 271.138253)"><g><path d="M 14.582031 -8.125 L 14.582031 -19.316406 C 14.582031 -24.15625 14.640625 -29 14.640625 -33.84375 C 14.640625 -36.902344 12.96875 -38.574219 9.90625 -38.574219 L 8.90625 -38.574219 C 5.84375 -38.574219 4.175781 -36.902344 4.230469 -33.84375 C 4.230469 -29 4.285156 -24.15625 4.285156 -19.316406 C 4.285156 -14.472656 4.230469 -9.628906 4.230469 -4.730469 C 4.175781 -1.667969 5.84375 0 8.90625 0 L 20.929688 0 C 23.988281 0 25.660156 -1.503906 25.660156 -4.285156 C 25.660156 -7.011719 23.933594 -8.40625 20.816406 -8.292969 C 18.757812 -8.183594 16.644531 -8.183594 14.582031 -8.125 Z M 14.582031 -8.125 "/></g></g></g><g fill="#ffffff" fill-opacity="1"><g transform="translate(198.551279, 271.138253)"><g><path d="M 14.582031 -8.125 L 14.582031 -19.316406 C 14.582031 -24.15625 14.640625 -29 14.640625 -33.84375 C 14.640625 -36.902344 12.96875 -38.574219 9.90625 -38.574219 L 8.90625 -38.574219 C 5.84375 -38.574219 4.175781 -36.902344 4.230469 -33.84375 C 4.230469 -29 4.285156 -24.15625 4.285156 -19.316406 C 4.285156 -14.472656 4.230469 -9.628906 4.230469 -4.730469 C 4.175781 -1.667969 5.84375 0 8.90625 0 L 20.929688 0 C 23.988281 0 25.660156 -1.503906 25.660156 -4.285156 C 25.660156 -7.011719 23.933594 -8.40625 20.816406 -8.292969 C 18.757812 -8.183594 16.644531 -8.183594 14.582031 -8.125 Z M 14.582031 -8.125 "/></g></g></g><g fill="#ffffff" fill-opacity="1"><g transform="translate(223.710244, 271.138253)"><g><path d="M 7.902344 -34.675781 C 12.023438 -34.675781 13.691406 -36.070312 13.691406 -39.410156 C 13.691406 -42.75 12.023438 -44.140625 7.902344 -44.140625 C 3.785156 -44.140625 2.113281 -42.75 2.113281 -39.410156 C 2.113281 -36.070312 3.785156 -34.675781 7.902344 -34.675781 Z M 8.070312 0 C 11.132812 0 12.746094 -1.667969 12.691406 -4.730469 C 12.691406 -7.902344 12.636719 -11.019531 12.691406 -14.25 C 12.746094 -17.644531 12.746094 -22.152344 12.746094 -26.050781 C 12.746094 -29.109375 11.078125 -30.78125 8.015625 -30.78125 L 7.960938 -30.78125 C 4.898438 -30.78125 3.226562 -29.109375 3.226562 -26.105469 C 3.285156 -22.597656 3.285156 -17.699219 3.339844 -9.460938 L 3.339844 -4.730469 C 3.339844 -1.667969 5.007812 0 8.070312 0 Z M 8.070312 0 "/></g></g></g><g fill="#ffffff" fill-opacity="1"><g transform="translate(71.996082, 299.627638)"><g><path d="M 9.832031 -9.664062 L 8.410156 -9.664062 C 7.710938 -9.664062 7.28125 -9.34375 7.070312 -8.6875 L 6.066406 -5.566406 L 4.867188 -8.730469 C 4.628906 -9.371094 4.199219 -9.664062 3.515625 -9.664062 L 2.230469 -9.664062 C 1.464844 -9.664062 1.046875 -9.246094 1.058594 -8.480469 C 1.074219 -6.039062 1.074219 -3.625 1.058594 -1.183594 C 1.046875 -0.417969 1.464844 0 2.203125 0 C 2.941406 0 3.347656 -0.417969 3.320312 -1.199219 C 3.261719 -2.648438 3.234375 -4.140625 3.207031 -6.679688 L 3.277344 -6.679688 L 4.742188 -2.09375 C 4.949219 -1.4375 5.273438 -1.117188 5.746094 -1.117188 C 6.207031 -1.117188 6.539062 -1.4375 6.765625 -2.078125 L 8.355469 -6.679688 L 8.410156 -6.679688 L 8.421875 -4.839844 C 8.421875 -3.613281 8.410156 -2.398438 8.394531 -1.183594 C 8.394531 -0.417969 8.8125 0 9.582031 0 L 9.832031 0 C 10.597656 0 11.019531 -0.417969 11.019531 -1.183594 C 11.019531 -2.398438 11.003906 -3.613281 11.003906 -4.839844 C 11.003906 -6.054688 11.019531 -7.265625 11.019531 -8.480469 C 11.019531 -9.246094 10.597656 -9.664062 9.832031 -9.664062 Z M 9.832031 -9.664062 "/></g></g></g><g fill="#ffffff" fill-opacity="1"><g transform="translate(84.608173, 299.627638)"><g><path d="M 3.652344 -1.855469 L 3.652344 -3.847656 C 4.238281 -3.835938 4.824219 -3.835938 5.382812 -3.820312 C 6.152344 -3.820312 6.570312 -4.15625 6.570312 -4.769531 C 6.570312 -5.371094 6.152344 -5.703125 5.382812 -5.703125 C 4.824219 -5.691406 4.238281 -5.691406 3.652344 -5.675781 L 3.652344 -7.808594 C 4.421875 -7.796875 5.203125 -7.796875 5.941406 -7.78125 C 6.707031 -7.78125 7.125 -8.117188 7.125 -8.730469 C 7.125 -9.332031 6.707031 -9.664062 5.941406 -9.664062 L 2.230469 -9.664062 C 1.464844 -9.664062 1.046875 -9.246094 1.058594 -8.480469 C 1.058594 -7.265625 1.074219 -6.054688 1.074219 -4.839844 C 1.074219 -3.625 1.058594 -2.414062 1.058594 -1.183594 C 1.046875 -0.417969 1.464844 0 2.230469 0 L 6.082031 0 C 6.847656 0 7.265625 -0.335938 7.265625 -0.949219 C 7.265625 -1.546875 6.847656 -1.882812 6.082031 -1.882812 C 5.300781 -1.867188 4.476562 -1.867188 3.652344 -1.855469 Z M 3.652344 -1.855469 "/></g></g></g><g fill="#ffffff" fill-opacity="1"><g transform="translate(93.039711, 299.627638)"><g><path d="M 7.390625 -9.664062 C 6.652344 -9.664062 6.277344 -9.234375 6.332031 -8.4375 C 6.429688 -7.125 6.5 -5.773438 6.539062 -4.253906 L 6.511719 -4.253906 L 4.335938 -8.785156 C 4.042969 -9.398438 3.613281 -9.664062 2.941406 -9.664062 L 2.230469 -9.664062 C 1.464844 -9.664062 1.046875 -9.246094 1.058594 -8.480469 C 1.074219 -6.039062 1.074219 -3.625 1.058594 -1.183594 C 1.046875 -0.417969 1.449219 0 2.175781 0 C 2.902344 0 3.277344 -0.433594 3.234375 -1.226562 C 3.125 -2.902344 3.054688 -4.492188 3.011719 -6.472656 L 3.039062 -6.472656 L 5.730469 -0.878906 C 6.023438 -0.265625 6.457031 0 7.125 0 L 7.335938 0 C 8.101562 0 8.519531 -0.417969 8.507812 -1.183594 C 8.492188 -3.625 8.492188 -6.039062 8.507812 -8.480469 C 8.519531 -9.246094 8.128906 -9.664062 7.390625 -9.664062 Z M 7.390625 -9.664062 "/></g></g></g><g fill="#ffffff" fill-opacity="1"><g transform="translate(103.157408, 299.627638)"><g><path d="M 7.824219 -8.730469 C 7.824219 -9.34375 7.40625 -9.664062 6.636719 -9.664062 L 1.535156 -9.664062 C 0.765625 -9.664062 0.347656 -9.332031 0.347656 -8.730469 C 0.347656 -8.128906 0.765625 -7.78125 1.546875 -7.78125 C 1.964844 -7.796875 2.371094 -7.796875 2.761719 -7.796875 C 2.761719 -6.820312 2.773438 -5.828125 2.773438 -4.839844 C 2.773438 -3.613281 2.761719 -2.398438 2.746094 -1.183594 C 2.746094 -0.417969 3.164062 0 3.933594 0 L 4.183594 0 C 4.949219 0 5.371094 -0.417969 5.355469 -1.183594 C 5.355469 -2.414062 5.355469 -3.613281 5.355469 -4.839844 L 5.355469 -7.796875 C 5.773438 -7.796875 6.179688 -7.796875 6.625 -7.78125 C 7.40625 -7.78125 7.824219 -8.128906 7.824219 -8.730469 Z M 7.824219 -8.730469 "/></g></g></g><g fill="#ffffff" fill-opacity="1"><g transform="translate(111.881584, 299.627638)"><g><path d="M 4.449219 -9.804688 C 2.386719 -9.804688 1.171875 -8.214844 0.851562 -3.277344 C 0.808594 -2.636719 0.796875 -1.953125 0.78125 -1.199219 C 0.765625 -0.417969 1.183594 0 1.9375 0 C 2.691406 0 3.109375 -0.417969 3.109375 -1.183594 C 3.109375 -1.535156 3.125 -1.855469 3.125 -2.160156 L 5.59375 -2.160156 C 5.605469 -1.8125 5.605469 -1.464844 5.605469 -1.085938 C 5.605469 -0.375 6.023438 0 6.792969 0 L 7 0 C 7.769531 0 8.1875 -0.445312 8.171875 -1.253906 C 8.074219 -7.78125 6.875 -9.804688 4.449219 -9.804688 Z M 3.152344 -3.820312 C 3.25 -6.945312 3.542969 -7.839844 4.253906 -7.839844 C 4.949219 -7.839844 5.371094 -6.945312 5.535156 -3.820312 Z M 3.152344 -3.820312 "/></g></g></g><g fill="#ffffff" fill-opacity="1"><g transform="translate(121.386132, 299.627638)"><g><path d="M 3.652344 -2.035156 L 3.652344 -4.839844 C 3.652344 -6.054688 3.667969 -7.265625 3.667969 -8.480469 C 3.667969 -9.246094 3.25 -9.664062 2.484375 -9.664062 L 2.230469 -9.664062 C 1.464844 -9.664062 1.046875 -9.246094 1.058594 -8.480469 C 1.058594 -7.265625 1.074219 -6.054688 1.074219 -4.839844 C 1.074219 -3.625 1.058594 -2.414062 1.058594 -1.183594 C 1.046875 -0.417969 1.464844 0 2.230469 0 L 5.242188 0 C 6.011719 0 6.429688 -0.375 6.429688 -1.074219 C 6.429688 -1.757812 5.996094 -2.105469 5.214844 -2.078125 C 4.699219 -2.050781 4.171875 -2.050781 3.652344 -2.035156 Z M 3.652344 -2.035156 "/></g></g></g><g fill="#ffffff" fill-opacity="1"><g transform="translate(128.800404, 299.627638)"><g/></g></g><g fill="#ffffff" fill-opacity="1"><g transform="translate(132.842365, 299.627638)"><g><path d="M 2.230469 0 L 2.484375 0 C 3.25 0 3.667969 -0.417969 3.667969 -1.183594 L 3.667969 -8.480469 C 3.667969 -9.246094 3.25 -9.664062 2.484375 -9.664062 L 2.230469 -9.664062 C 1.464844 -9.664062 1.046875 -9.246094 1.046875 -8.480469 L 1.046875 -1.183594 C 1.046875 -0.417969 1.464844 0 2.230469 0 Z M 2.230469 0 "/></g></g></g><g fill="#ffffff" fill-opacity="1"><g transform="translate(138.110618, 299.627638)"><g><path d="M 3.652344 -2.035156 L 3.652344 -4.839844 C 3.652344 -6.054688 3.667969 -7.265625 3.667969 -8.480469 C 3.667969 -9.246094 3.25 -9.664062 2.484375 -9.664062 L 2.230469 -9.664062 C 1.464844 -9.664062 1.046875 -9.246094 1.058594 -8.480469 C 1.058594 -7.265625 1.074219 -6.054688 1.074219 -4.839844 C 1.074219 -3.625 1.058594 -2.414062 1.058594 -1.183594 C 1.046875 -0.417969 1.464844 0 2.230469 0 L 5.242188 0 C 6.011719 0 6.429688 -0.375 6.429688 -1.074219 C 6.429688 -1.757812 5.996094 -2.105469 5.214844 -2.078125 C 4.699219 -2.050781 4.171875 -2.050781 3.652344 -2.035156 Z M 3.652344 -2.035156 "/></g></g></g><g fill="#ffffff" fill-opacity="1"><g transform="translate(145.524893, 299.627638)"><g><path d="M 3.652344 -2.035156 L 3.652344 -4.839844 C 3.652344 -6.054688 3.667969 -7.265625 3.667969 -8.480469 C 3.667969 -9.246094 3.25 -9.664062 2.484375 -9.664062 L 2.230469 -9.664062 C 1.464844 -9.664062 1.046875 -9.246094 1.058594 -8.480469 C 1.058594 -7.265625 1.074219 -6.054688 1.074219 -4.839844 C 1.074219 -3.625 1.058594 -2.414062 1.058594 -1.183594 C 1.046875 -0.417969 1.464844 0 2.230469 0 L 5.242188 0 C 6.011719 0 6.429688 -0.375 6.429688 -1.074219 C 6.429688 -1.757812 5.996094 -2.105469 5.214844 -2.078125 C 4.699219 -2.050781 4.171875 -2.050781 3.652344 -2.035156 Z M 3.652344 -2.035156 "/></g></g></g><g fill="#ffffff" fill-opacity="1"><g transform="translate(152.939168, 299.627638)"><g><path d="M 7.390625 -9.664062 C 6.652344 -9.664062 6.277344 -9.234375 6.332031 -8.4375 C 6.429688 -7.125 6.5 -5.773438 6.539062 -4.253906 L 6.511719 -4.253906 L 4.335938 -8.785156 C 4.042969 -9.398438 3.613281 -9.664062 2.941406 -9.664062 L 2.230469 -9.664062 C 1.464844 -9.664062 1.046875 -9.246094 1.058594 -8.480469 C 1.074219 -6.039062 1.074219 -3.625 1.058594 -1.183594 C 1.046875 -0.417969 1.449219 0 2.175781 0 C 2.902344 0 3.277344 -0.433594 3.234375 -1.226562 C 3.125 -2.902344 3.054688 -4.492188 3.011719 -6.472656 L 3.039062 -6.472656 L 5.730469 -0.878906 C 6.023438 -0.265625 6.457031 0 7.125 0 L 7.335938 0 C 8.101562 0 8.519531 -0.417969 8.507812 -1.183594 C 8.492188 -3.625 8.492188 -6.039062 8.507812 -8.480469 C 8.519531 -9.246094 8.128906 -9.664062 7.390625 -9.664062 Z M 7.390625 -9.664062 "/></g></g></g><g fill="#ffffff" fill-opacity="1"><g transform="translate(163.056869, 299.627638)"><g><path d="M 3.652344 -1.855469 L 3.652344 -3.847656 C 4.238281 -3.835938 4.824219 -3.835938 5.382812 -3.820312 C 6.152344 -3.820312 6.570312 -4.15625 6.570312 -4.769531 C 6.570312 -5.371094 6.152344 -5.703125 5.382812 -5.703125 C 4.824219 -5.691406 4.238281 -5.691406 3.652344 -5.675781 L 3.652344 -7.808594 C 4.421875 -7.796875 5.203125 -7.796875 5.941406 -7.78125 C 6.707031 -7.78125 7.125 -8.117188 7.125 -8.730469 C 7.125 -9.332031 6.707031 -9.664062 5.941406 -9.664062 L 2.230469 -9.664062 C 1.464844 -9.664062 1.046875 -9.246094 1.058594 -8.480469 C 1.058594 -7.265625 1.074219 -6.054688 1.074219 -4.839844 C 1.074219 -3.625 1.058594 -2.414062 1.058594 -1.183594 C 1.046875 -0.417969 1.464844 0 2.230469 0 L 6.082031 0 C 6.847656 0 7.265625 -0.335938 7.265625 -0.949219 C 7.265625 -1.546875 6.847656 -1.882812 6.082031 -1.882812 C 5.300781 -1.867188 4.476562 -1.867188 3.652344 -1.855469 Z M 3.652344 -1.855469 "/></g></g></g><g fill="#ffffff" fill-opacity="1"><g transform="translate(171.488409, 299.627638)"><g><path d="M 4.085938 0.140625 C 6.597656 0.140625 7.894531 -0.863281 7.894531 -2.789062 C 7.894531 -6.136719 3.234375 -4.6875 3.234375 -6.945312 C 3.234375 -7.613281 3.5 -8.0625 4.308594 -8.0625 C 4.980469 -8.0625 5.371094 -7.867188 5.496094 -7.28125 C 5.664062 -6.5 5.886719 -6.082031 6.597656 -6.082031 C 7.308594 -6.082031 7.796875 -6.472656 7.742188 -7.238281 C 7.613281 -8.882812 6.527344 -9.804688 4.351562 -9.804688 C 2.105469 -9.804688 0.824219 -8.980469 0.824219 -6.890625 C 0.824219 -3.472656 5.273438 -4.558594 5.273438 -2.621094 C 5.273438 -2.050781 4.921875 -1.769531 4.171875 -1.769531 C 3.722656 -1.769531 3.402344 -1.855469 3.195312 -2.050781 C 2.71875 -2.566406 2.59375 -2.96875 1.925781 -2.96875 L 1.800781 -2.96875 C 1.085938 -2.96875 0.558594 -2.523438 0.765625 -1.757812 C 1.117188 -0.515625 2.230469 0.140625 4.085938 0.140625 Z M 4.085938 0.140625 "/></g></g></g><g fill="#ffffff" fill-opacity="1"><g transform="translate(180.477354, 299.627638)"><g><path d="M 4.085938 0.140625 C 6.597656 0.140625 7.894531 -0.863281 7.894531 -2.789062 C 7.894531 -6.136719 3.234375 -4.6875 3.234375 -6.945312 C 3.234375 -7.613281 3.5 -8.0625 4.308594 -8.0625 C 4.980469 -8.0625 5.371094 -7.867188 5.496094 -7.28125 C 5.664062 -6.5 5.886719 -6.082031 6.597656 -6.082031 C 7.308594 -6.082031 7.796875 -6.472656 7.742188 -7.238281 C 7.613281 -8.882812 6.527344 -9.804688 4.351562 -9.804688 C 2.105469 -9.804688 0.824219 -8.980469 0.824219 -6.890625 C 0.824219 -3.472656 5.273438 -4.558594 5.273438 -2.621094 C 5.273438 -2.050781 4.921875 -1.769531 4.171875 -1.769531 C 3.722656 -1.769531 3.402344 -1.855469 3.195312 -2.050781 C 2.71875 -2.566406 2.59375 -2.96875 1.925781 -2.96875 L 1.800781 -2.96875 C 1.085938 -2.96875 0.558594 -2.523438 0.765625 -1.757812 C 1.117188 -0.515625 2.230469 0.140625 4.085938 0.140625 Z M 4.085938 0.140625 "/></g></g></g><g fill="#ffffff" fill-opacity="1"><g transform="translate(189.466298, 299.627638)"><g/></g></g><g fill="#ffffff" fill-opacity="1"><g transform="translate(193.508265, 299.627638)"><g><path d="M 2.230469 0 L 2.484375 0 C 3.25 0 3.667969 -0.417969 3.667969 -1.183594 L 3.667969 -8.480469 C 3.667969 -9.246094 3.25 -9.664062 2.484375 -9.664062 L 2.230469 -9.664062 C 1.464844 -9.664062 1.046875 -9.246094 1.046875 -8.480469 L 1.046875 -1.183594 C 1.046875 -0.417969 1.464844 0 2.230469 0 Z M 2.230469 0 "/></g></g></g><g fill="#ffffff" fill-opacity="1"><g transform="translate(198.776518, 299.627638)"><g><path d="M 7.390625 -9.664062 C 6.652344 -9.664062 6.277344 -9.234375 6.332031 -8.4375 C 6.429688 -7.125 6.5 -5.773438 6.539062 -4.253906 L 6.511719 -4.253906 L 4.335938 -8.785156 C 4.042969 -9.398438 3.613281 -9.664062 2.941406 -9.664062 L 2.230469 -9.664062 C 1.464844 -9.664062 1.046875 -9.246094 1.058594 -8.480469 C 1.074219 -6.039062 1.074219 -3.625 1.058594 -1.183594 C 1.046875 -0.417969 1.449219 0 2.175781 0 C 2.902344 0 3.277344 -0.433594 3.234375 -1.226562 C 3.125 -2.902344 3.054688 -4.492188 3.011719 -6.472656 L 3.039062 -6.472656 L 5.730469 -0.878906 C 6.023438 -0.265625 6.457031 0 7.125 0 L 7.335938 0 C 8.101562 0 8.519531 -0.417969 8.507812 -1.183594 C 8.492188 -3.625 8.492188 -6.039062 8.507812 -8.480469 C 8.519531 -9.246094 8.128906 -9.664062 7.390625 -9.664062 Z M 7.390625 -9.664062 "/></g></g></g><g fill="#ffffff" fill-opacity="1"><g transform="translate(208.894219, 299.627638)"><g><path d="M 7.824219 -8.730469 C 7.824219 -9.34375 7.40625 -9.664062 6.636719 -9.664062 L 1.535156 -9.664062 C 0.765625 -9.664062 0.347656 -9.332031 0.347656 -8.730469 C 0.347656 -8.128906 0.765625 -7.78125 1.546875 -7.78125 C 1.964844 -7.796875 2.371094 -7.796875 2.761719 -7.796875 C 2.761719 -6.820312 2.773438 -5.828125 2.773438 -4.839844 C 2.773438 -3.613281 2.761719 -2.398438 2.746094 -1.183594 C 2.746094 -0.417969 3.164062 0 3.933594 0 L 4.183594 0 C 4.949219 0 5.371094 -0.417969 5.355469 -1.183594 C 5.355469 -2.414062 5.355469 -3.613281 5.355469 -4.839844 L 5.355469 -7.796875 C 5.773438 -7.796875 6.179688 -7.796875 6.625 -7.78125 C 7.40625 -7.78125 7.824219 -8.128906 7.824219 -8.730469 Z M 7.824219 -8.730469 "/></g></g></g><g fill="#ffffff" fill-opacity="1"><g transform="translate(217.618398, 299.627638)"><g><path d="M 3.652344 -1.855469 L 3.652344 -3.847656 C 4.238281 -3.835938 4.824219 -3.835938 5.382812 -3.820312 C 6.152344 -3.820312 6.570312 -4.15625 6.570312 -4.769531 C 6.570312 -5.371094 6.152344 -5.703125 5.382812 -5.703125 C 4.824219 -5.691406 4.238281 -5.691406 3.652344 -5.675781 L 3.652344 -7.808594 C 4.421875 -7.796875 5.203125 -7.796875 5.941406 -7.78125 C 6.707031 -7.78125 7.125 -8.117188 7.125 -8.730469 C 7.125 -9.332031 6.707031 -9.664062 5.941406 -9.664062 L 2.230469 -9.664062 C 1.464844 -9.664062 1.046875 -9.246094 1.058594 -8.480469 C 1.058594 -7.265625 1.074219 -6.054688 1.074219 -4.839844 C 1.074219 -3.625 1.058594 -2.414062 1.058594 -1.183594 C 1.046875 -0.417969 1.464844 0 2.230469 0 L 6.082031 0 C 6.847656 0 7.265625 -0.335938 7.265625 -0.949219 C 7.265625 -1.546875 6.847656 -1.882812 6.082031 -1.882812 C 5.300781 -1.867188 4.476562 -1.867188 3.652344 -1.855469 Z M 3.652344 -1.855469 "/></g></g></g><g fill="#ffffff" fill-opacity="1"><g transform="translate(226.049938, 299.627638)"><g><path d="M 3.652344 -2.035156 L 3.652344 -4.839844 C 3.652344 -6.054688 3.667969 -7.265625 3.667969 -8.480469 C 3.667969 -9.246094 3.25 -9.664062 2.484375 -9.664062 L 2.230469 -9.664062 C 1.464844 -9.664062 1.046875 -9.246094 1.058594 -8.480469 C 1.058594 -7.265625 1.074219 -6.054688 1.074219 -4.839844 C 1.074219 -3.625 1.058594 -2.414062 1.058594 -1.183594 C 1.046875 -0.417969 1.464844 0 2.230469 0 L 5.242188 0 C 6.011719 0 6.429688 -0.375 6.429688 -1.074219 C 6.429688 -1.757812 5.996094 -2.105469 5.214844 -2.078125 C 4.699219 -2.050781 4.171875 -2.050781 3.652344 -2.035156 Z M 3.652344 -2.035156 "/></g></g></g><g fill="#ffffff" fill-opacity="1"><g transform="translate(233.464213, 299.627638)"><g><path d="M 3.652344 -2.035156 L 3.652344 -4.839844 C 3.652344 -6.054688 3.667969 -7.265625 3.667969 -8.480469 C 3.667969 -9.246094 3.25 -9.664062 2.484375 -9.664062 L 2.230469 -9.664062 C 1.464844 -9.664062 1.046875 -9.246094 1.058594 -8.480469 C 1.058594 -7.265625 1.074219 -6.054688 1.074219 -4.839844 C 1.074219 -3.625 1.058594 -2.414062 1.058594 -1.183594 C 1.046875 -0.417969 1.464844 0 2.230469 0 L 5.242188 0 C 6.011719 0 6.429688 -0.375 6.429688 -1.074219 C 6.429688 -1.757812 5.996094 -2.105469 5.214844 -2.078125 C 4.699219 -2.050781 4.171875 -2.050781 3.652344 -2.035156 Z M 3.652344 -2.035156 "/></g></g></g><g fill="#ffffff" fill-opacity="1"><g transform="translate(240.878488, 299.627638)"><g><path d="M 2.230469 0 L 2.484375 0 C 3.25 0 3.667969 -0.417969 3.667969 -1.183594 L 3.667969 -8.480469 C 3.667969 -9.246094 3.25 -9.664062 2.484375 -9.664062 L 2.230469 -9.664062 C 1.464844 -9.664062 1.046875 -9.246094 1.046875 -8.480469 L 1.046875 -1.183594 C 1.046875 -0.417969 1.464844 0 2.230469 0 Z M 2.230469 0 "/></g></g></g><g fill="#ffffff" fill-opacity="1"><g transform="translate(246.146741, 299.627638)"><g><path d="M 4.992188 0.140625 C 6.570312 0.140625 7.433594 -0.335938 8.019531 -0.949219 C 8.269531 -1.226562 8.339844 -1.574219 8.339844 -2.160156 L 8.339844 -4.058594 C 8.339844 -4.824219 7.921875 -5.242188 7.15625 -5.242188 L 5.886719 -5.242188 C 5.117188 -5.242188 4.699219 -4.921875 4.699219 -4.351562 C 4.699219 -3.78125 5.117188 -3.457031 5.886719 -3.457031 L 6.109375 -3.457031 L 6.109375 -2.386719 C 6.109375 -2.023438 5.566406 -1.8125 4.921875 -1.8125 C 4.015625 -1.8125 3.25 -2.386719 3.25 -4.839844 C 3.25 -7.113281 3.640625 -7.921875 4.8125 -7.921875 C 5.273438 -7.921875 5.578125 -7.796875 5.703125 -7.476562 C 5.984375 -6.765625 6.082031 -6.375 6.804688 -6.375 L 6.972656 -6.375 C 7.742188 -6.375 8.269531 -6.804688 8.128906 -7.574219 C 7.839844 -9.039062 6.679688 -9.804688 4.796875 -9.804688 C 2.050781 -9.804688 0.699219 -8.144531 0.699219 -4.839844 C 0.699219 -1.519531 2.023438 0.140625 4.992188 0.140625 Z M 4.992188 0.140625 "/></g></g></g><g fill="#ffffff" fill-opacity="1"><g transform="translate(255.734898, 299.627638)"><g><path d="M 3.652344 -1.855469 L 3.652344 -3.847656 C 4.238281 -3.835938 4.824219 -3.835938 5.382812 -3.820312 C 6.152344 -3.820312 6.570312 -4.15625 6.570312 -4.769531 C 6.570312 -5.371094 6.152344 -5.703125 5.382812 -5.703125 C 4.824219 -5.691406 4.238281 -5.691406 3.652344 -5.675781 L 3.652344 -7.808594 C 4.421875 -7.796875 5.203125 -7.796875 5.941406 -7.78125 C 6.707031 -7.78125 7.125 -8.117188 7.125 -8.730469 C 7.125 -9.332031 6.707031 -9.664062 5.941406 -9.664062 L 2.230469 -9.664062 C 1.464844 -9.664062 1.046875 -9.246094 1.058594 -8.480469 C 1.058594 -7.265625 1.074219 -6.054688 1.074219 -4.839844 C 1.074219 -3.625 1.058594 -2.414062 1.058594 -1.183594 C 1.046875 -0.417969 1.464844 0 2.230469 0 L 6.082031 0 C 6.847656 0 7.265625 -0.335938 7.265625 -0.949219 C 7.265625 -1.546875 6.847656 -1.882812 6.082031 -1.882812 C 5.300781 -1.867188 4.476562 -1.867188 3.652344 -1.855469 Z M 3.652344 -1.855469 "/></g></g></g><g fill="#ffffff" fill-opacity="1"><g transform="translate(264.166439, 299.627638)"><g><path d="M 7.390625 -9.664062 C 6.652344 -9.664062 6.277344 -9.234375 6.332031 -8.4375 C 6.429688 -7.125 6.5 -5.773438 6.539062 -4.253906 L 6.511719 -4.253906 L 4.335938 -8.785156 C 4.042969 -9.398438 3.613281 -9.664062 2.941406 -9.664062 L 2.230469 -9.664062 C 1.464844 -9.664062 1.046875 -9.246094 1.058594 -8.480469 C 1.074219 -6.039062 1.074219 -3.625 1.058594 -1.183594 C 1.046875 -0.417969 1.449219 0 2.175781 0 C 2.902344 0 3.277344 -0.433594 3.234375 -1.226562 C 3.125 -2.902344 3.054688 -4.492188 3.011719 -6.472656 L 3.039062 -6.472656 L 5.730469 -0.878906 C 6.023438 -0.265625 6.457031 0 7.125 0 L 7.335938 0 C 8.101562 0 8.519531 -0.417969 8.507812 -1.183594 C 8.492188 -3.625 8.492188 -6.039062 8.507812 -8.480469 C 8.519531 -9.246094 8.128906 -9.664062 7.390625 -9.664062 Z M 7.390625 -9.664062 "/></g></g></g><g fill="#ffffff" fill-opacity="1"><g transform="translate(274.284139, 299.627638)"><g><path d="M 4.699219 0.140625 C 6.695312 0.140625 7.949219 -0.640625 8.226562 -2.34375 C 8.367188 -3.152344 7.851562 -3.597656 7.085938 -3.597656 L 7.070312 -3.597656 C 6.34375 -3.597656 6.054688 -3.207031 5.816406 -2.46875 C 5.648438 -1.964844 5.3125 -1.785156 4.714844 -1.785156 C 3.917969 -1.785156 3.359375 -2.371094 3.359375 -4.839844 C 3.359375 -7.113281 3.75 -7.921875 4.714844 -7.921875 C 5.425781 -7.921875 5.761719 -7.644531 5.871094 -6.917969 C 5.984375 -6.121094 6.277344 -5.691406 7.042969 -5.691406 L 7.125 -5.691406 C 7.878906 -5.691406 8.394531 -6.09375 8.324219 -6.875 C 8.160156 -8.773438 6.863281 -9.804688 4.796875 -9.804688 C 2.050781 -9.804688 0.683594 -8.144531 0.683594 -4.839844 C 0.683594 -1.519531 1.925781 0.140625 4.699219 0.140625 Z M 4.699219 0.140625 "/></g></g></g><g fill="#ffffff" fill-opacity="1"><g transform="translate(283.691137, 299.627638)"><g><path d="M 3.652344 -1.855469 L 3.652344 -3.847656 C 4.238281 -3.835938 4.824219 -3.835938 5.382812 -3.820312 C 6.152344 -3.820312 6.570312 -4.15625 6.570312 -4.769531 C 6.570312 -5.371094 6.152344 -5.703125 5.382812 -5.703125 C 4.824219 -5.691406 4.238281 -5.691406 3.652344 -5.675781 L 3.652344 -7.808594 C 4.421875 -7.796875 5.203125 -7.796875 5.941406 -7.78125 C 6.707031 -7.78125 7.125 -8.117188 7.125 -8.730469 C 7.125 -9.332031 6.707031 -9.664062 5.941406 -9.664062 L 2.230469 -9.664062 C 1.464844 -9.664062 1.046875 -9.246094 1.058594 -8.480469 C 1.058594 -7.265625 1.074219 -6.054688 1.074219 -4.839844 C 1.074219 -3.625 1.058594 -2.414062 1.058594 -1.183594 C 1.046875 -0.417969 1.464844 0 2.230469 0 L 6.082031 0 C 6.847656 0 7.265625 -0.335938 7.265625 -0.949219 C 7.265625 -1.546875 6.847656 -1.882812 6.082031 -1.882812 C 5.300781 -1.867188 4.476562 -1.867188 3.652344 -1.855469 Z M 3.652344 -1.855469 "/></g></g></g></svg>