<svg xmlns="http://www.w3.org/2000/svg" xmlns:xlink="http://www.w3.org/1999/xlink" width="500" zoomAndPan="magnify" viewBox="0 0 375 374.999991" height="500" preserveAspectRatio="xMidYMid meet" version="1.0"><defs><g/><clipPath id="957cc9bab6"><path d="M 180 11.089844 L 309.867188 11.089844 L 309.867188 215.839844 L 180 215.839844 Z M 180 11.089844 " clip-rule="nonzero"/></clipPath><clipPath id="d1dc38cdfa"><path d="M 65.367188 11.089844 L 184 11.089844 L 184 189 L 65.367188 189 Z M 65.367188 11.089844 " clip-rule="nonzero"/></clipPath></defs><rect x="-37.5" width="450" fill="#ffffff" y="-37.499999" height="449.999989" fill-opacity="1"/><rect x="-37.5" width="450" fill="#ffffff" y="-37.499999" height="449.999989" fill-opacity="1"/><path fill="#26ace2" d="M 119.609375 106.828125 C 118.625 106.804688 117.621094 107.042969 116.703125 107.570312 C 114.515625 108.832031 113.511719 111.355469 114.078125 113.691406 L 111.601562 114.929688 C 110.070312 107.035156 110.269531 98.742188 112.40625 90.632812 C 113.65625 85.898438 115.507812 81.4375 117.878906 77.328125 L 116.601562 76.097656 L 121.902344 81.214844 C 120.894531 82.890625 120.804688 85.046875 121.851562 86.859375 C 122.40625 87.820312 123.207031 88.554688 124.128906 89.027344 Z M 124.601562 110.195312 C 124.511719 109.996094 124.414062 109.796875 124.304688 109.605469 C 123.746094 108.640625 122.945312 107.910156 122.023438 107.4375 L 126.542969 89.636719 C 127.457031 89.65625 128.386719 89.457031 129.246094 89.003906 L 140.925781 102.644531 C 139.769531 104.027344 139.15625 105.777344 139.175781 107.554688 Z M 156.953125 79.558594 C 155.886719 80.503906 155.191406 81.75 154.914062 83.085938 L 132.101562 82.886719 C 132.015625 82.503906 131.890625 82.128906 131.722656 81.761719 L 146.773438 70.183594 C 148.214844 71.367188 150.195312 71.769531 152.007812 71.191406 Z M 154.890625 85.578125 L 132.078125 85.375 C 131.902344 86.097656 131.585938 86.785156 131.140625 87.386719 L 142.820312 101.027344 C 142.855469 101.007812 142.894531 100.984375 142.933594 100.960938 C 145.042969 99.746094 147.5 99.667969 149.585938 100.535156 L 156.808594 89.085938 C 156.363281 88.664062 155.972656 88.175781 155.648438 87.617188 C 155.273438 86.964844 155.023438 86.273438 154.890625 85.574219 Z M 158.917969 90.414062 C 159.992188 90.824219 161.167969 90.953125 162.320312 90.761719 L 170.085938 111.367188 C 169.363281 111.84375 168.78125 112.464844 168.363281 113.164062 L 154.121094 108.558594 C 154.363281 106.941406 154.078125 105.238281 153.199219 103.710938 C 152.789062 103 152.277344 102.378906 151.695312 101.863281 Z M 171.496094 65.59375 C 171.640625 66.117188 171.851562 66.628906 172.136719 67.125 C 172.332031 67.457031 172.546875 67.769531 172.789062 68.058594 L 164.253906 78.664062 C 162.691406 77.851562 160.820312 77.683594 159.097656 78.296875 L 154.152344 69.925781 C 155.066406 69.0625 155.640625 67.929688 155.828125 66.730469 Z M 167.6875 83.789062 L 188.246094 85.875 C 188.542969 84.886719 189.074219 83.964844 189.8125 83.199219 L 180.371094 69.792969 C 178.519531 70.621094 176.441406 70.507812 174.734375 69.613281 L 166.199219 80.222656 C 166.4375 80.507812 166.65625 80.820312 166.851562 81.15625 C 167.335938 81.992188 167.609375 82.890625 167.6875 83.789062 Z M 182.40625 68.363281 C 184.347656 66.339844 184.808594 63.210938 183.335938 60.664062 C 183.265625 60.539062 183.1875 60.417969 183.109375 60.300781 L 190.628906 52.816406 C 210.140625 62.328125 217.519531 73.304688 212.761719 85.738281 L 200.957031 86.246094 C 200.8125 85.640625 200.578125 85.042969 200.25 84.476562 C 198.546875 81.523438 194.894531 80.394531 191.847656 81.765625 Z M 178.023438 113.234375 C 177.859375 112.945312 177.667969 112.675781 177.460938 112.429688 L 191.648438 93.667969 C 193.550781 94.601562 195.871094 94.597656 197.839844 93.460938 C 199.648438 92.417969 200.777344 90.644531 201.0625 88.734375 L 211.632812 88.277344 C 209.386719 92.714844 205.648438 97.332031 200.40625 102.128906 C 199.199219 115.449219 193.152344 122.964844 182.273438 124.675781 L 177.683594 119.355469 C 178.964844 117.617188 179.175781 115.222656 178.023438 113.234375 Z M 139.617188 110.003906 L 125.039062 112.640625 C 124.992188 113.640625 124.675781 114.617188 124.117188 115.453125 L 135.820312 127.789062 C 135.890625 127.742188 135.96875 127.699219 136.042969 127.65625 C 137.226562 126.976562 138.539062 126.710938 139.804688 126.820312 L 143.441406 114.230469 C 142.121094 113.597656 140.96875 112.574219 140.183594 111.214844 C 139.953125 110.820312 139.769531 110.417969 139.617188 110.003906 Z M 134.011719 129.5 C 132.605469 131.484375 132.390625 134.183594 133.6875 136.425781 C 134.378906 137.621094 135.394531 138.507812 136.554688 139.042969 L 134.085938 149.160156 C 133.761719 149.023438 133.449219 148.878906 133.144531 148.71875 C 122.414062 140.941406 115.148438 129.757812 112.148438 117.4375 L 115.195312 115.917969 C 116.890625 117.976562 119.878906 118.570312 122.265625 117.191406 C 122.28125 117.183594 122.292969 117.175781 122.308594 117.167969 L 134.015625 129.5 Z M 168.867188 119.609375 L 145.449219 131.476562 C 146.230469 134.234375 145.070312 137.277344 142.472656 138.777344 C 141.371094 139.414062 140.15625 139.6875 138.976562 139.632812 L 136.460938 149.925781 C 140.273438 150.816406 145.054688 150.472656 150.804688 148.902344 C 156.0625 161.472656 160.230469 167.449219 163.308594 166.828125 L 164.699219 166.027344 C 167.488281 163.242188 169.140625 153.589844 169.65625 137.070312 C 174.898438 135.039062 178.46875 131.4375 180.359375 126.273438 L 175.792969 120.976562 C 173.425781 122.226562 170.535156 121.617188 168.867188 119.609375 Z M 167.597656 115.535156 C 167.539062 116.148438 167.582031 116.777344 167.738281 117.390625 L 144.320312 129.257812 C 143.734375 128.511719 143.007812 127.925781 142.199219 127.507812 L 145.832031 114.917969 C 147.378906 115.097656 148.992188 114.796875 150.445312 113.960938 C 151.730469 113.21875 152.71875 112.152344 153.355469 110.925781 L 167.59375 115.535156 Z M 175.472656 110.929688 L 189.65625 92.171875 C 189.355469 91.835938 189.082031 91.460938 188.847656 91.054688 C 188.351562 90.199219 188.070312 89.277344 187.992188 88.351562 L 167.4375 86.265625 C 166.992188 87.71875 166.039062 89.023438 164.652344 89.878906 L 172.417969 110.484375 C 173.460938 110.34375 174.523438 110.503906 175.472656 110.929688 Z M 151.644531 60.472656 C 153.070312 60.824219 154.351562 61.730469 155.144531 63.097656 C 155.359375 63.46875 155.527344 63.851562 155.648438 64.25 L 171.316406 63.113281 C 171.554688 61.167969 172.675781 59.355469 174.503906 58.300781 C 176.714844 57.027344 179.367188 57.203125 181.351562 58.539062 L 187.972656 51.945312 C 177.429688 48.023438 165.363281 48.082031 151.777344 52.121094 Z M 118.617188 74.222656 C 118.554688 74.285156 118.496094 74.347656 118.433594 74.410156 C 118.496094 74.347656 118.554688 74.285156 118.617188 74.222656 Z M 119.039062 73.769531 C 118.914062 73.910156 118.789062 74.046875 118.664062 74.175781 C 118.789062 74.046875 118.914062 73.910156 119.039062 73.769531 Z M 119.257812 73.53125 C 119.199219 73.597656 119.140625 73.660156 119.082031 73.726562 C 119.140625 73.660156 119.199219 73.597656 119.257812 73.53125 Z M 119.457031 73.300781 L 119.277344 73.507812 C 119.335938 73.441406 119.398438 73.371094 119.457031 73.300781 Z M 123.886719 79.273438 C 125.949219 78.082031 128.460938 78.363281 130.203125 79.792969 L 145.25 68.210938 C 144.054688 65.625 145.011719 62.511719 147.527344 61.058594 C 148.046875 60.757812 148.597656 60.550781 149.15625 60.433594 L 149.273438 52.902344 C 142.335938 55.183594 137.113281 57.789062 133.066406 60.425781 C 127.59375 64.410156 122.878906 69.398438 119.199219 75.148438 L 118.4375 74.410156 L 123.636719 79.425781 C 123.714844 79.375 123.800781 79.320312 123.886719 79.273438 Z M 123.886719 79.273438 " fill-opacity="1" fill-rule="evenodd"/><g clip-path="url(#957cc9bab6)"><path fill="#26ace2" d="M 273.558594 79.265625 L 256.417969 79.265625 L 256.417969 63.855469 L 240.984375 63.855469 L 240.984375 46.734375 L 256.417969 46.734375 L 256.417969 31.324219 L 273.558594 31.324219 L 273.558594 46.734375 L 288.988281 46.734375 L 288.988281 63.855469 L 273.558594 63.855469 Z M 247.519531 123.242188 C 253.886719 129.65625 254.199219 133.730469 248.453125 135.46875 C 251.996094 137.179688 253.757812 138.632812 253.835938 140.308594 C 254.015625 144.289062 249.453125 143.003906 250.320312 148.585938 C 252.734375 164.121094 255.484375 170.242188 234.082031 172.179688 C 217.53125 175.9375 207.09375 190.492188 202.765625 215.835938 C 418.976562 57.34375 252.785156 -41.632812 180.984375 40.992188 C 200.429688 44.40625 215.339844 57.507812 225.714844 80.292969 C 234.105469 98.710938 233.613281 100.425781 250.300781 109.675781 C 258.007812 113.945312 253.925781 117.042969 247.519531 123.238281 Z M 247.519531 123.242188 " fill-opacity="1" fill-rule="evenodd"/></g><g clip-path="url(#d1dc38cdfa)"><path fill="#7acde9" d="M 172.3125 40.714844 C 175.824219 36.832031 179.519531 33.117188 183.382812 29.578125 C 88.898438 -30.992188 -1.066406 66.425781 134.195312 188.851562 C 145.714844 170.765625 124.382812 155.40625 114.910156 140.726562 C 83.5 92.042969 116.339844 43.066406 172.3125 40.714844 Z M 172.3125 40.714844 " fill-opacity="1" fill-rule="evenodd"/></g><g fill="#5e17eb" fill-opacity="1"><g transform="translate(113.890209, 271.138253)"><g><path d="M 39.242188 -38.574219 L 33.5625 -38.574219 C 30.78125 -38.574219 29.054688 -37.292969 28.21875 -34.675781 L 24.210938 -22.210938 L 19.425781 -34.84375 C 18.480469 -37.40625 16.753906 -38.574219 14.027344 -38.574219 L 8.90625 -38.574219 C 5.84375 -38.574219 4.175781 -36.902344 4.230469 -33.84375 C 4.285156 -24.101562 4.285156 -14.472656 4.230469 -4.730469 C 4.175781 -1.667969 5.84375 0 8.792969 0 C 11.746094 0 13.359375 -1.667969 13.246094 -4.785156 C 13.023438 -10.574219 12.914062 -16.53125 12.800781 -26.660156 L 13.082031 -26.660156 L 18.925781 -8.347656 C 19.761719 -5.734375 21.039062 -4.453125 22.933594 -4.453125 C 24.769531 -4.453125 26.105469 -5.734375 26.996094 -8.292969 L 33.339844 -26.660156 L 33.5625 -26.660156 L 33.621094 -19.316406 C 33.621094 -14.417969 33.5625 -9.574219 33.507812 -4.730469 C 33.507812 -1.667969 35.179688 0 38.238281 0 L 39.242188 0 C 42.304688 0 43.972656 -1.667969 43.972656 -4.730469 C 43.972656 -9.574219 43.917969 -14.417969 43.917969 -19.316406 C 43.917969 -24.15625 43.972656 -29 43.972656 -33.84375 C 43.972656 -36.902344 42.304688 -38.574219 39.242188 -38.574219 Z M 39.242188 -38.574219 "/></g></g></g><g fill="#5e17eb" fill-opacity="1"><g transform="translate(159.81099, 271.138253)"><g><path d="M 7.902344 -34.675781 C 12.023438 -34.675781 13.691406 -36.070312 13.691406 -39.410156 C 13.691406 -42.75 12.023438 -44.140625 7.902344 -44.140625 C 3.785156 -44.140625 2.113281 -42.75 2.113281 -39.410156 C 2.113281 -36.070312 3.785156 -34.675781 7.902344 -34.675781 Z M 8.070312 0 C 11.132812 0 12.746094 -1.667969 12.691406 -4.730469 C 12.691406 -7.902344 12.636719 -11.019531 12.691406 -14.25 C 12.746094 -17.644531 12.746094 -22.152344 12.746094 -26.050781 C 12.746094 -29.109375 11.078125 -30.78125 8.015625 -30.78125 L 7.960938 -30.78125 C 4.898438 -30.78125 3.226562 -29.109375 3.226562 -26.105469 C 3.285156 -22.597656 3.285156 -17.699219 3.339844 -9.460938 L 3.339844 -4.730469 C 3.339844 -1.667969 5.007812 0 8.070312 0 Z M 8.070312 0 "/></g></g></g><g fill="#5e17eb" fill-opacity="1"><g transform="translate(173.392314, 271.138253)"><g><path d="M 14.582031 -8.125 L 14.582031 -19.316406 C 14.582031 -24.15625 14.640625 -29 14.640625 -33.84375 C 14.640625 -36.902344 12.96875 -38.574219 9.90625 -38.574219 L 8.90625 -38.574219 C 5.84375 -38.574219 4.175781 -36.902344 4.230469 -33.84375 C 4.230469 -29 4.285156 -24.15625 4.285156 -19.316406 C 4.285156 -14.472656 4.230469 -9.628906 4.230469 -4.730469 C 4.175781 -1.667969 5.84375 0 8.90625 0 L 20.929688 0 C 23.988281 0 25.660156 -1.503906 25.660156 -4.285156 C 25.660156 -7.011719 23.933594 -8.40625 20.816406 -8.292969 C 18.757812 -8.183594 16.644531 -8.183594 14.582031 -8.125 Z M 14.582031 -8.125 "/></g></g></g><g fill="#5e17eb" fill-opacity="1"><g transform="translate(198.551279, 271.138253)"><g><path d="M 14.582031 -8.125 L 14.582031 -19.316406 C 14.582031 -24.15625 14.640625 -29 14.640625 -33.84375 C 14.640625 -36.902344 12.96875 -38.574219 9.90625 -38.574219 L 8.90625 -38.574219 C 5.84375 -38.574219 4.175781 -36.902344 4.230469 -33.84375 C 4.230469 -29 4.285156 -24.15625 4.285156 -19.316406 C 4.285156 -14.472656 4.230469 -9.628906 4.230469 -4.730469 C 4.175781 -1.667969 5.84375 0 8.90625 0 L 20.929688 0 C 23.988281 0 25.660156 -1.503906 25.660156 -4.285156 C 25.660156 -7.011719 23.933594 -8.40625 20.816406 -8.292969 C 18.757812 -8.183594 16.644531 -8.183594 14.582031 -8.125 Z M 14.582031 -8.125 "/></g></g></g><g fill="#5e17eb" fill-opacity="1"><g transform="translate(223.710244, 271.138253)"><g><path d="M 7.902344 -34.675781 C 12.023438 -34.675781 13.691406 -36.070312 13.691406 -39.410156 C 13.691406 -42.75 12.023438 -44.140625 7.902344 -44.140625 C 3.785156 -44.140625 2.113281 -42.75 2.113281 -39.410156 C 2.113281 -36.070312 3.785156 -34.675781 7.902344 -34.675781 Z M 8.070312 0 C 11.132812 0 12.746094 -1.667969 12.691406 -4.730469 C 12.691406 -7.902344 12.636719 -11.019531 12.691406 -14.25 C 12.746094 -17.644531 12.746094 -22.152344 12.746094 -26.050781 C 12.746094 -29.109375 11.078125 -30.78125 8.015625 -30.78125 L 7.960938 -30.78125 C 4.898438 -30.78125 3.226562 -29.109375 3.226562 -26.105469 C 3.285156 -22.597656 3.285156 -17.699219 3.339844 -9.460938 L 3.339844 -4.730469 C 3.339844 -1.667969 5.007812 0 8.070312 0 Z M 8.070312 0 "/></g></g></g><g fill="#38b6ff" fill-opacity="1"><g transform="translate(71.996082, 299.627638)"><g><path d="M 9.832031 -9.664062 L 8.410156 -9.664062 C 7.710938 -9.664062 7.28125 -9.34375 7.070312 -8.6875 L 6.066406 -5.566406 L 4.867188 -8.730469 C 4.628906 -9.371094 4.199219 -9.664062 3.515625 -9.664062 L 2.230469 -9.664062 C 1.464844 -9.664062 1.046875 -9.246094 1.058594 -8.480469 C 1.074219 -6.039062 1.074219 -3.625 1.058594 -1.183594 C 1.046875 -0.417969 1.464844 0 2.203125 0 C 2.941406 0 3.347656 -0.417969 3.320312 -1.199219 C 3.261719 -2.648438 3.234375 -4.140625 3.207031 -6.679688 L 3.277344 -6.679688 L 4.742188 -2.09375 C 4.949219 -1.4375 5.273438 -1.117188 5.746094 -1.117188 C 6.207031 -1.117188 6.539062 -1.4375 6.765625 -2.078125 L 8.355469 -6.679688 L 8.410156 -6.679688 L 8.421875 -4.839844 C 8.421875 -3.613281 8.410156 -2.398438 8.394531 -1.183594 C 8.394531 -0.417969 8.8125 0 9.582031 0 L 9.832031 0 C 10.597656 0 11.019531 -0.417969 11.019531 -1.183594 C 11.019531 -2.398438 11.003906 -3.613281 11.003906 -4.839844 C 11.003906 -6.054688 11.019531 -7.265625 11.019531 -8.480469 C 11.019531 -9.246094 10.597656 -9.664062 9.832031 -9.664062 Z M 9.832031 -9.664062 "/></g></g></g><g fill="#38b6ff" fill-opacity="1"><g transform="translate(84.608173, 299.627638)"><g><path d="M 3.652344 -1.855469 L 3.652344 -3.847656 C 4.238281 -3.835938 4.824219 -3.835938 5.382812 -3.820312 C 6.152344 -3.820312 6.570312 -4.15625 6.570312 -4.769531 C 6.570312 -5.371094 6.152344 -5.703125 5.382812 -5.703125 C 4.824219 -5.691406 4.238281 -5.691406 3.652344 -5.675781 L 3.652344 -7.808594 C 4.421875 -7.796875 5.203125 -7.796875 5.941406 -7.78125 C 6.707031 -7.78125 7.125 -8.117188 7.125 -8.730469 C 7.125 -9.332031 6.707031 -9.664062 5.941406 -9.664062 L 2.230469 -9.664062 C 1.464844 -9.664062 1.046875 -9.246094 1.058594 -8.480469 C 1.058594 -7.265625 1.074219 -6.054688 1.074219 -4.839844 C 1.074219 -3.625 1.058594 -2.414062 1.058594 -1.183594 C 1.046875 -0.417969 1.464844 0 2.230469 0 L 6.082031 0 C 6.847656 0 7.265625 -0.335938 7.265625 -0.949219 C 7.265625 -1.546875 6.847656 -1.882812 6.082031 -1.882812 C 5.300781 -1.867188 4.476562 -1.867188 3.652344 -1.855469 Z M 3.652344 -1.855469 "/></g></g></g><g fill="#38b6ff" fill-opacity="1"><g transform="translate(93.039711, 299.627638)"><g><path d="M 7.390625 -9.664062 C 6.652344 -9.664062 6.277344 -9.234375 6.332031 -8.4375 C 6.429688 -7.125 6.5 -5.773438 6.539062 -4.253906 L 6.511719 -4.253906 L 4.335938 -8.785156 C 4.042969 -9.398438 3.613281 -9.664062 2.941406 -9.664062 L 2.230469 -9.664062 C 1.464844 -9.664062 1.046875 -9.246094 1.058594 -8.480469 C 1.074219 -6.039062 1.074219 -3.625 1.058594 -1.183594 C 1.046875 -0.417969 1.449219 0 2.175781 0 C 2.902344 0 3.277344 -0.433594 3.234375 -1.226562 C 3.125 -2.902344 3.054688 -4.492188 3.011719 -6.472656 L 3.039062 -6.472656 L 5.730469 -0.878906 C 6.023438 -0.265625 6.457031 0 7.125 0 L 7.335938 0 C 8.101562 0 8.519531 -0.417969 8.507812 -1.183594 C 8.492188 -3.625 8.492188 -6.039062 8.507812 -8.480469 C 8.519531 -9.246094 8.128906 -9.664062 7.390625 -9.664062 Z M 7.390625 -9.664062 "/></g></g></g><g fill="#38b6ff" fill-opacity="1"><g transform="translate(103.157408, 299.627638)"><g><path d="M 7.824219 -8.730469 C 7.824219 -9.34375 7.40625 -9.664062 6.636719 -9.664062 L 1.535156 -9.664062 C 0.765625 -9.664062 0.347656 -9.332031 0.347656 -8.730469 C 0.347656 -8.128906 0.765625 -7.78125 1.546875 -7.78125 C 1.964844 -7.796875 2.371094 -7.796875 2.761719 -7.796875 C 2.761719 -6.820312 2.773438 -5.828125 2.773438 -4.839844 C 2.773438 -3.613281 2.761719 -2.398438 2.746094 -1.183594 C 2.746094 -0.417969 3.164062 0 3.933594 0 L 4.183594 0 C 4.949219 0 5.371094 -0.417969 5.355469 -1.183594 C 5.355469 -2.414062 5.355469 -3.613281 5.355469 -4.839844 L 5.355469 -7.796875 C 5.773438 -7.796875 6.179688 -7.796875 6.625 -7.78125 C 7.40625 -7.78125 7.824219 -8.128906 7.824219 -8.730469 Z M 7.824219 -8.730469 "/></g></g></g><g fill="#38b6ff" fill-opacity="1"><g transform="translate(111.881584, 299.627638)"><g><path d="M 4.449219 -9.804688 C 2.386719 -9.804688 1.171875 -8.214844 0.851562 -3.277344 C 0.808594 -2.636719 0.796875 -1.953125 0.78125 -1.199219 C 0.765625 -0.417969 1.183594 0 1.9375 0 C 2.691406 0 3.109375 -0.417969 3.109375 -1.183594 C 3.109375 -1.535156 3.125 -1.855469 3.125 -2.160156 L 5.59375 -2.160156 C 5.605469 -1.8125 5.605469 -1.464844 5.605469 -1.085938 C 5.605469 -0.375 6.023438 0 6.792969 0 L 7 0 C 7.769531 0 8.1875 -0.445312 8.171875 -1.253906 C 8.074219 -7.78125 6.875 -9.804688 4.449219 -9.804688 Z M 3.152344 -3.820312 C 3.25 -6.945312 3.542969 -7.839844 4.253906 -7.839844 C 4.949219 -7.839844 5.371094 -6.945312 5.535156 -3.820312 Z M 3.152344 -3.820312 "/></g></g></g><g fill="#38b6ff" fill-opacity="1"><g transform="translate(121.386132, 299.627638)"><g><path d="M 3.652344 -2.035156 L 3.652344 -4.839844 C 3.652344 -6.054688 3.667969 -7.265625 3.667969 -8.480469 C 3.667969 -9.246094 3.25 -9.664062 2.484375 -9.664062 L 2.230469 -9.664062 C 1.464844 -9.664062 1.046875 -9.246094 1.058594 -8.480469 C 1.058594 -7.265625 1.074219 -6.054688 1.074219 -4.839844 C 1.074219 -3.625 1.058594 -2.414062 1.058594 -1.183594 C 1.046875 -0.417969 1.464844 0 2.230469 0 L 5.242188 0 C 6.011719 0 6.429688 -0.375 6.429688 -1.074219 C 6.429688 -1.757812 5.996094 -2.105469 5.214844 -2.078125 C 4.699219 -2.050781 4.171875 -2.050781 3.652344 -2.035156 Z M 3.652344 -2.035156 "/></g></g></g><g fill="#38b6ff" fill-opacity="1"><g transform="translate(128.800404, 299.627638)"><g/></g></g><g fill="#38b6ff" fill-opacity="1"><g transform="translate(132.842365, 299.627638)"><g><path d="M 2.230469 0 L 2.484375 0 C 3.25 0 3.667969 -0.417969 3.667969 -1.183594 L 3.667969 -8.480469 C 3.667969 -9.246094 3.25 -9.664062 2.484375 -9.664062 L 2.230469 -9.664062 C 1.464844 -9.664062 1.046875 -9.246094 1.046875 -8.480469 L 1.046875 -1.183594 C 1.046875 -0.417969 1.464844 0 2.230469 0 Z M 2.230469 0 "/></g></g></g><g fill="#38b6ff" fill-opacity="1"><g transform="translate(138.110618, 299.627638)"><g><path d="M 3.652344 -2.035156 L 3.652344 -4.839844 C 3.652344 -6.054688 3.667969 -7.265625 3.667969 -8.480469 C 3.667969 -9.246094 3.25 -9.664062 2.484375 -9.664062 L 2.230469 -9.664062 C 1.464844 -9.664062 1.046875 -9.246094 1.058594 -8.480469 C 1.058594 -7.265625 1.074219 -6.054688 1.074219 -4.839844 C 1.074219 -3.625 1.058594 -2.414062 1.058594 -1.183594 C 1.046875 -0.417969 1.464844 0 2.230469 0 L 5.242188 0 C 6.011719 0 6.429688 -0.375 6.429688 -1.074219 C 6.429688 -1.757812 5.996094 -2.105469 5.214844 -2.078125 C 4.699219 -2.050781 4.171875 -2.050781 3.652344 -2.035156 Z M 3.652344 -2.035156 "/></g></g></g><g fill="#38b6ff" fill-opacity="1"><g transform="translate(145.524893, 299.627638)"><g><path d="M 3.652344 -2.035156 L 3.652344 -4.839844 C 3.652344 -6.054688 3.667969 -7.265625 3.667969 -8.480469 C 3.667969 -9.246094 3.25 -9.664062 2.484375 -9.664062 L 2.230469 -9.664062 C 1.464844 -9.664062 1.046875 -9.246094 1.058594 -8.480469 C 1.058594 -7.265625 1.074219 -6.054688 1.074219 -4.839844 C 1.074219 -3.625 1.058594 -2.414062 1.058594 -1.183594 C 1.046875 -0.417969 1.464844 0 2.230469 0 L 5.242188 0 C 6.011719 0 6.429688 -0.375 6.429688 -1.074219 C 6.429688 -1.757812 5.996094 -2.105469 5.214844 -2.078125 C 4.699219 -2.050781 4.171875 -2.050781 3.652344 -2.035156 Z M 3.652344 -2.035156 "/></g></g></g><g fill="#38b6ff" fill-opacity="1"><g transform="translate(152.939168, 299.627638)"><g><path d="M 7.390625 -9.664062 C 6.652344 -9.664062 6.277344 -9.234375 6.332031 -8.4375 C 6.429688 -7.125 6.5 -5.773438 6.539062 -4.253906 L 6.511719 -4.253906 L 4.335938 -8.785156 C 4.042969 -9.398438 3.613281 -9.664062 2.941406 -9.664062 L 2.230469 -9.664062 C 1.464844 -9.664062 1.046875 -9.246094 1.058594 -8.480469 C 1.074219 -6.039062 1.074219 -3.625 1.058594 -1.183594 C 1.046875 -0.417969 1.449219 0 2.175781 0 C 2.902344 0 3.277344 -0.433594 3.234375 -1.226562 C 3.125 -2.902344 3.054688 -4.492188 3.011719 -6.472656 L 3.039062 -6.472656 L 5.730469 -0.878906 C 6.023438 -0.265625 6.457031 0 7.125 0 L 7.335938 0 C 8.101562 0 8.519531 -0.417969 8.507812 -1.183594 C 8.492188 -3.625 8.492188 -6.039062 8.507812 -8.480469 C 8.519531 -9.246094 8.128906 -9.664062 7.390625 -9.664062 Z M 7.390625 -9.664062 "/></g></g></g><g fill="#38b6ff" fill-opacity="1"><g transform="translate(163.056869, 299.627638)"><g><path d="M 3.652344 -1.855469 L 3.652344 -3.847656 C 4.238281 -3.835938 4.824219 -3.835938 5.382812 -3.820312 C 6.152344 -3.820312 6.570312 -4.15625 6.570312 -4.769531 C 6.570312 -5.371094 6.152344 -5.703125 5.382812 -5.703125 C 4.824219 -5.691406 4.238281 -5.691406 3.652344 -5.675781 L 3.652344 -7.808594 C 4.421875 -7.796875 5.203125 -7.796875 5.941406 -7.78125 C 6.707031 -7.78125 7.125 -8.117188 7.125 -8.730469 C 7.125 -9.332031 6.707031 -9.664062 5.941406 -9.664062 L 2.230469 -9.664062 C 1.464844 -9.664062 1.046875 -9.246094 1.058594 -8.480469 C 1.058594 -7.265625 1.074219 -6.054688 1.074219 -4.839844 C 1.074219 -3.625 1.058594 -2.414062 1.058594 -1.183594 C 1.046875 -0.417969 1.464844 0 2.230469 0 L 6.082031 0 C 6.847656 0 7.265625 -0.335938 7.265625 -0.949219 C 7.265625 -1.546875 6.847656 -1.882812 6.082031 -1.882812 C 5.300781 -1.867188 4.476562 -1.867188 3.652344 -1.855469 Z M 3.652344 -1.855469 "/></g></g></g><g fill="#38b6ff" fill-opacity="1"><g transform="translate(171.488409, 299.627638)"><g><path d="M 4.085938 0.140625 C 6.597656 0.140625 7.894531 -0.863281 7.894531 -2.789062 C 7.894531 -6.136719 3.234375 -4.6875 3.234375 -6.945312 C 3.234375 -7.613281 3.5 -8.0625 4.308594 -8.0625 C 4.980469 -8.0625 5.371094 -7.867188 5.496094 -7.28125 C 5.664062 -6.5 5.886719 -6.082031 6.597656 -6.082031 C 7.308594 -6.082031 7.796875 -6.472656 7.742188 -7.238281 C 7.613281 -8.882812 6.527344 -9.804688 4.351562 -9.804688 C 2.105469 -9.804688 0.824219 -8.980469 0.824219 -6.890625 C 0.824219 -3.472656 5.273438 -4.558594 5.273438 -2.621094 C 5.273438 -2.050781 4.921875 -1.769531 4.171875 -1.769531 C 3.722656 -1.769531 3.402344 -1.855469 3.195312 -2.050781 C 2.71875 -2.566406 2.59375 -2.96875 1.925781 -2.96875 L 1.800781 -2.96875 C 1.085938 -2.96875 0.558594 -2.523438 0.765625 -1.757812 C 1.117188 -0.515625 2.230469 0.140625 4.085938 0.140625 Z M 4.085938 0.140625 "/></g></g></g><g fill="#38b6ff" fill-opacity="1"><g transform="translate(180.477354, 299.627638)"><g><path d="M 4.085938 0.140625 C 6.597656 0.140625 7.894531 -0.863281 7.894531 -2.789062 C 7.894531 -6.136719 3.234375 -4.6875 3.234375 -6.945312 C 3.234375 -7.613281 3.5 -8.0625 4.308594 -8.0625 C 4.980469 -8.0625 5.371094 -7.867188 5.496094 -7.28125 C 5.664062 -6.5 5.886719 -6.082031 6.597656 -6.082031 C 7.308594 -6.082031 7.796875 -6.472656 7.742188 -7.238281 C 7.613281 -8.882812 6.527344 -9.804688 4.351562 -9.804688 C 2.105469 -9.804688 0.824219 -8.980469 0.824219 -6.890625 C 0.824219 -3.472656 5.273438 -4.558594 5.273438 -2.621094 C 5.273438 -2.050781 4.921875 -1.769531 4.171875 -1.769531 C 3.722656 -1.769531 3.402344 -1.855469 3.195312 -2.050781 C 2.71875 -2.566406 2.59375 -2.96875 1.925781 -2.96875 L 1.800781 -2.96875 C 1.085938 -2.96875 0.558594 -2.523438 0.765625 -1.757812 C 1.117188 -0.515625 2.230469 0.140625 4.085938 0.140625 Z M 4.085938 0.140625 "/></g></g></g><g fill="#38b6ff" fill-opacity="1"><g transform="translate(189.466298, 299.627638)"><g/></g></g><g fill="#38b6ff" fill-opacity="1"><g transform="translate(193.508265, 299.627638)"><g><path d="M 2.230469 0 L 2.484375 0 C 3.25 0 3.667969 -0.417969 3.667969 -1.183594 L 3.667969 -8.480469 C 3.667969 -9.246094 3.25 -9.664062 2.484375 -9.664062 L 2.230469 -9.664062 C 1.464844 -9.664062 1.046875 -9.246094 1.046875 -8.480469 L 1.046875 -1.183594 C 1.046875 -0.417969 1.464844 0 2.230469 0 Z M 2.230469 0 "/></g></g></g><g fill="#38b6ff" fill-opacity="1"><g transform="translate(198.776518, 299.627638)"><g><path d="M 7.390625 -9.664062 C 6.652344 -9.664062 6.277344 -9.234375 6.332031 -8.4375 C 6.429688 -7.125 6.5 -5.773438 6.539062 -4.253906 L 6.511719 -4.253906 L 4.335938 -8.785156 C 4.042969 -9.398438 3.613281 -9.664062 2.941406 -9.664062 L 2.230469 -9.664062 C 1.464844 -9.664062 1.046875 -9.246094 1.058594 -8.480469 C 1.074219 -6.039062 1.074219 -3.625 1.058594 -1.183594 C 1.046875 -0.417969 1.449219 0 2.175781 0 C 2.902344 0 3.277344 -0.433594 3.234375 -1.226562 C 3.125 -2.902344 3.054688 -4.492188 3.011719 -6.472656 L 3.039062 -6.472656 L 5.730469 -0.878906 C 6.023438 -0.265625 6.457031 0 7.125 0 L 7.335938 0 C 8.101562 0 8.519531 -0.417969 8.507812 -1.183594 C 8.492188 -3.625 8.492188 -6.039062 8.507812 -8.480469 C 8.519531 -9.246094 8.128906 -9.664062 7.390625 -9.664062 Z M 7.390625 -9.664062 "/></g></g></g><g fill="#38b6ff" fill-opacity="1"><g transform="translate(208.894219, 299.627638)"><g><path d="M 7.824219 -8.730469 C 7.824219 -9.34375 7.40625 -9.664062 6.636719 -9.664062 L 1.535156 -9.664062 C 0.765625 -9.664062 0.347656 -9.332031 0.347656 -8.730469 C 0.347656 -8.128906 0.765625 -7.78125 1.546875 -7.78125 C 1.964844 -7.796875 2.371094 -7.796875 2.761719 -7.796875 C 2.761719 -6.820312 2.773438 -5.828125 2.773438 -4.839844 C 2.773438 -3.613281 2.761719 -2.398438 2.746094 -1.183594 C 2.746094 -0.417969 3.164062 0 3.933594 0 L 4.183594 0 C 4.949219 0 5.371094 -0.417969 5.355469 -1.183594 C 5.355469 -2.414062 5.355469 -3.613281 5.355469 -4.839844 L 5.355469 -7.796875 C 5.773438 -7.796875 6.179688 -7.796875 6.625 -7.78125 C 7.40625 -7.78125 7.824219 -8.128906 7.824219 -8.730469 Z M 7.824219 -8.730469 "/></g></g></g><g fill="#38b6ff" fill-opacity="1"><g transform="translate(217.618398, 299.627638)"><g><path d="M 3.652344 -1.855469 L 3.652344 -3.847656 C 4.238281 -3.835938 4.824219 -3.835938 5.382812 -3.820312 C 6.152344 -3.820312 6.570312 -4.15625 6.570312 -4.769531 C 6.570312 -5.371094 6.152344 -5.703125 5.382812 -5.703125 C 4.824219 -5.691406 4.238281 -5.691406 3.652344 -5.675781 L 3.652344 -7.808594 C 4.421875 -7.796875 5.203125 -7.796875 5.941406 -7.78125 C 6.707031 -7.78125 7.125 -8.117188 7.125 -8.730469 C 7.125 -9.332031 6.707031 -9.664062 5.941406 -9.664062 L 2.230469 -9.664062 C 1.464844 -9.664062 1.046875 -9.246094 1.058594 -8.480469 C 1.058594 -7.265625 1.074219 -6.054688 1.074219 -4.839844 C 1.074219 -3.625 1.058594 -2.414062 1.058594 -1.183594 C 1.046875 -0.417969 1.464844 0 2.230469 0 L 6.082031 0 C 6.847656 0 7.265625 -0.335938 7.265625 -0.949219 C 7.265625 -1.546875 6.847656 -1.882812 6.082031 -1.882812 C 5.300781 -1.867188 4.476562 -1.867188 3.652344 -1.855469 Z M 3.652344 -1.855469 "/></g></g></g><g fill="#38b6ff" fill-opacity="1"><g transform="translate(226.049938, 299.627638)"><g><path d="M 3.652344 -2.035156 L 3.652344 -4.839844 C 3.652344 -6.054688 3.667969 -7.265625 3.667969 -8.480469 C 3.667969 -9.246094 3.25 -9.664062 2.484375 -9.664062 L 2.230469 -9.664062 C 1.464844 -9.664062 1.046875 -9.246094 1.058594 -8.480469 C 1.058594 -7.265625 1.074219 -6.054688 1.074219 -4.839844 C 1.074219 -3.625 1.058594 -2.414062 1.058594 -1.183594 C 1.046875 -0.417969 1.464844 0 2.230469 0 L 5.242188 0 C 6.011719 0 6.429688 -0.375 6.429688 -1.074219 C 6.429688 -1.757812 5.996094 -2.105469 5.214844 -2.078125 C 4.699219 -2.050781 4.171875 -2.050781 3.652344 -2.035156 Z M 3.652344 -2.035156 "/></g></g></g><g fill="#38b6ff" fill-opacity="1"><g transform="translate(233.464213, 299.627638)"><g><path d="M 3.652344 -2.035156 L 3.652344 -4.839844 C 3.652344 -6.054688 3.667969 -7.265625 3.667969 -8.480469 C 3.667969 -9.246094 3.25 -9.664062 2.484375 -9.664062 L 2.230469 -9.664062 C 1.464844 -9.664062 1.046875 -9.246094 1.058594 -8.480469 C 1.058594 -7.265625 1.074219 -6.054688 1.074219 -4.839844 C 1.074219 -3.625 1.058594 -2.414062 1.058594 -1.183594 C 1.046875 -0.417969 1.464844 0 2.230469 0 L 5.242188 0 C 6.011719 0 6.429688 -0.375 6.429688 -1.074219 C 6.429688 -1.757812 5.996094 -2.105469 5.214844 -2.078125 C 4.699219 -2.050781 4.171875 -2.050781 3.652344 -2.035156 Z M 3.652344 -2.035156 "/></g></g></g><g fill="#38b6ff" fill-opacity="1"><g transform="translate(240.878488, 299.627638)"><g><path d="M 2.230469 0 L 2.484375 0 C 3.25 0 3.667969 -0.417969 3.667969 -1.183594 L 3.667969 -8.480469 C 3.667969 -9.246094 3.25 -9.664062 2.484375 -9.664062 L 2.230469 -9.664062 C 1.464844 -9.664062 1.046875 -9.246094 1.046875 -8.480469 L 1.046875 -1.183594 C 1.046875 -0.417969 1.464844 0 2.230469 0 Z M 2.230469 0 "/></g></g></g><g fill="#38b6ff" fill-opacity="1"><g transform="translate(246.146741, 299.627638)"><g><path d="M 4.992188 0.140625 C 6.570312 0.140625 7.433594 -0.335938 8.019531 -0.949219 C 8.269531 -1.226562 8.339844 -1.574219 8.339844 -2.160156 L 8.339844 -4.058594 C 8.339844 -4.824219 7.921875 -5.242188 7.15625 -5.242188 L 5.886719 -5.242188 C 5.117188 -5.242188 4.699219 -4.921875 4.699219 -4.351562 C 4.699219 -3.78125 5.117188 -3.457031 5.886719 -3.457031 L 6.109375 -3.457031 L 6.109375 -2.386719 C 6.109375 -2.023438 5.566406 -1.8125 4.921875 -1.8125 C 4.015625 -1.8125 3.25 -2.386719 3.25 -4.839844 C 3.25 -7.113281 3.640625 -7.921875 4.8125 -7.921875 C 5.273438 -7.921875 5.578125 -7.796875 5.703125 -7.476562 C 5.984375 -6.765625 6.082031 -6.375 6.804688 -6.375 L 6.972656 -6.375 C 7.742188 -6.375 8.269531 -6.804688 8.128906 -7.574219 C 7.839844 -9.039062 6.679688 -9.804688 4.796875 -9.804688 C 2.050781 -9.804688 0.699219 -8.144531 0.699219 -4.839844 C 0.699219 -1.519531 2.023438 0.140625 4.992188 0.140625 Z M 4.992188 0.140625 "/></g></g></g><g fill="#38b6ff" fill-opacity="1"><g transform="translate(255.734898, 299.627638)"><g><path d="M 3.652344 -1.855469 L 3.652344 -3.847656 C 4.238281 -3.835938 4.824219 -3.835938 5.382812 -3.820312 C 6.152344 -3.820312 6.570312 -4.15625 6.570312 -4.769531 C 6.570312 -5.371094 6.152344 -5.703125 5.382812 -5.703125 C 4.824219 -5.691406 4.238281 -5.691406 3.652344 -5.675781 L 3.652344 -7.808594 C 4.421875 -7.796875 5.203125 -7.796875 5.941406 -7.78125 C 6.707031 -7.78125 7.125 -8.117188 7.125 -8.730469 C 7.125 -9.332031 6.707031 -9.664062 5.941406 -9.664062 L 2.230469 -9.664062 C 1.464844 -9.664062 1.046875 -9.246094 1.058594 -8.480469 C 1.058594 -7.265625 1.074219 -6.054688 1.074219 -4.839844 C 1.074219 -3.625 1.058594 -2.414062 1.058594 -1.183594 C 1.046875 -0.417969 1.464844 0 2.230469 0 L 6.082031 0 C 6.847656 0 7.265625 -0.335938 7.265625 -0.949219 C 7.265625 -1.546875 6.847656 -1.882812 6.082031 -1.882812 C 5.300781 -1.867188 4.476562 -1.867188 3.652344 -1.855469 Z M 3.652344 -1.855469 "/></g></g></g><g fill="#38b6ff" fill-opacity="1"><g transform="translate(264.166439, 299.627638)"><g><path d="M 7.390625 -9.664062 C 6.652344 -9.664062 6.277344 -9.234375 6.332031 -8.4375 C 6.429688 -7.125 6.5 -5.773438 6.539062 -4.253906 L 6.511719 -4.253906 L 4.335938 -8.785156 C 4.042969 -9.398438 3.613281 -9.664062 2.941406 -9.664062 L 2.230469 -9.664062 C 1.464844 -9.664062 1.046875 -9.246094 1.058594 -8.480469 C 1.074219 -6.039062 1.074219 -3.625 1.058594 -1.183594 C 1.046875 -0.417969 1.449219 0 2.175781 0 C 2.902344 0 3.277344 -0.433594 3.234375 -1.226562 C 3.125 -2.902344 3.054688 -4.492188 3.011719 -6.472656 L 3.039062 -6.472656 L 5.730469 -0.878906 C 6.023438 -0.265625 6.457031 0 7.125 0 L 7.335938 0 C 8.101562 0 8.519531 -0.417969 8.507812 -1.183594 C 8.492188 -3.625 8.492188 -6.039062 8.507812 -8.480469 C 8.519531 -9.246094 8.128906 -9.664062 7.390625 -9.664062 Z M 7.390625 -9.664062 "/></g></g></g><g fill="#38b6ff" fill-opacity="1"><g transform="translate(274.284139, 299.627638)"><g><path d="M 4.699219 0.140625 C 6.695312 0.140625 7.949219 -0.640625 8.226562 -2.34375 C 8.367188 -3.152344 7.851562 -3.597656 7.085938 -3.597656 L 7.070312 -3.597656 C 6.34375 -3.597656 6.054688 -3.207031 5.816406 -2.46875 C 5.648438 -1.964844 5.3125 -1.785156 4.714844 -1.785156 C 3.917969 -1.785156 3.359375 -2.371094 3.359375 -4.839844 C 3.359375 -7.113281 3.75 -7.921875 4.714844 -7.921875 C 5.425781 -7.921875 5.761719 -7.644531 5.871094 -6.917969 C 5.984375 -6.121094 6.277344 -5.691406 7.042969 -5.691406 L 7.125 -5.691406 C 7.878906 -5.691406 8.394531 -6.09375 8.324219 -6.875 C 8.160156 -8.773438 6.863281 -9.804688 4.796875 -9.804688 C 2.050781 -9.804688 0.683594 -8.144531 0.683594 -4.839844 C 0.683594 -1.519531 1.925781 0.140625 4.699219 0.140625 Z M 4.699219 0.140625 "/></g></g></g><g fill="#38b6ff" fill-opacity="1"><g transform="translate(283.691137, 299.627638)"><g><path d="M 3.652344 -1.855469 L 3.652344 -3.847656 C 4.238281 -3.835938 4.824219 -3.835938 5.382812 -3.820312 C 6.152344 -3.820312 6.570312 -4.15625 6.570312 -4.769531 C 6.570312 -5.371094 6.152344 -5.703125 5.382812 -5.703125 C 4.824219 -5.691406 4.238281 -5.691406 3.652344 -5.675781 L 3.652344 -7.808594 C 4.421875 -7.796875 5.203125 -7.796875 5.941406 -7.78125 C 6.707031 -7.78125 7.125 -8.117188 7.125 -8.730469 C 7.125 -9.332031 6.707031 -9.664062 5.941406 -9.664062 L 2.230469 -9.664062 C 1.464844 -9.664062 1.046875 -9.246094 1.058594 -8.480469 C 1.058594 -7.265625 1.074219 -6.054688 1.074219 -4.839844 C 1.074219 -3.625 1.058594 -2.414062 1.058594 -1.183594 C 1.046875 -0.417969 1.464844 0 2.230469 0 L 6.082031 0 C 6.847656 0 7.265625 -0.335938 7.265625 -0.949219 C 7.265625 -1.546875 6.847656 -1.882812 6.082031 -1.882812 C 5.300781 -1.867188 4.476562 -1.867188 3.652344 -1.855469 Z M 3.652344 -1.855469 "/></g></g></g></svg>