<svg xmlns="http://www.w3.org/2000/svg" version="1.1" xmlns:xlink="http://www.w3.org/1999/xlink" xmlns:svgjs="http://svgjs.dev/svgjs" width="1500" height="314" viewBox="0 0 1500 314"><g transform="matrix(1,0,0,1,-0.9090909090909918,-0.7160462704346742)"><svg viewBox="0 0 396 83" data-background-color="#0b2d39" preserveAspectRatio="xMidYMid meet" height="314" width="1500" xmlns="http://www.w3.org/2000/svg" xmlns:xlink="http://www.w3.org/1999/xlink"><g id="tight-bounds" transform="matrix(1,0,0,1,0.2400000000000091,0.18927337721680715)"><svg viewBox="0 0 395.52 82.62145324556637" height="82.62145324556637" width="395.52"><g><svg viewBox="0 0 516.246372694858 107.84037607403278" height="82.62145324556637" width="395.52"><g transform="matrix(1,0,0,1,120.72637269485804,26.628136704341166)"><svg viewBox="0 0 395.52 54.58410266535044" height="54.58410266535044" width="395.52"><g id="textblocktransform"><svg viewBox="0 0 395.52 54.58410266535044" height="54.58410266535044" width="395.52" id="textblock"><g><svg viewBox="0 0 395.52 54.58410266535044" height="54.58410266535044" width="395.52"><g transform="matrix(1,0,0,1,0,0)"><svg width="395.52" viewBox="3.3 -34.6 253.22999999999996 34.95" height="54.58410266535044" data-palette-color="#f0fbff"><path d="M32.85-5.2L32.85-18.3 26.6-5.5Q25.8-3.9 24.9-3.23 24-2.55 22.75-2.55L22.75-2.55Q21.15-2.55 20.05-3.68 18.95-4.8 17.2-7.75L17.2-7.75 11.4-18.3 11.4-4.15Q11.4-2 10.43-1 9.45 0 7.5 0L7.5 0Q5.3 0 4.3-0.98 3.3-1.95 3.3-4.8L3.3-4.8 3.3-26.6Q3.3-30.45 5.05-32.4 6.8-34.35 10.95-34.35L10.95-34.35Q12.5-34.35 13.65-33.83 14.8-33.3 15.38-32.63 15.95-31.95 16.5-30.95L16.5-30.95 23.2-16.3 30.3-30.7Q32.15-34.3 36.95-34.3L36.95-34.3Q39.2-34.3 40.8-33.52 42.4-32.75 43.33-31.03 44.25-29.3 44.25-26.7L44.25-26.7 44.25-4.95Q44.2 0 38 0L38 0Q35.75 0 34.33-1.23 32.9-2.45 32.85-5.2L32.85-5.2ZM62.5 0.3L62.5 0.3Q56.4 0.3 52.42-2.85 48.45-6 48.45-11.45L48.45-11.45Q48.45-17.35 52.37-20.78 56.3-24.2 62.5-24.2L62.5-24.2Q68.35-24.2 71.07-22.13 73.8-20.05 73.8-16.45L73.8-16.45Q73.8-15.75 73.62-15.1 73.45-14.45 73.07-13.83 72.7-13.2 72.07-12.68 71.45-12.15 70.65-11.73 69.85-11.3 68.75-11.08 67.65-10.85 66.4-10.85L66.4-10.85 59.35-10.8Q59.85-9.2 61.15-8.28 62.45-7.35 64.45-7.35L64.45-7.35Q66.6-7.35 68.85-7.9L68.85-7.9Q69.8-8.15 70.92-8.7 72.05-9.25 72.55-9.25L72.55-9.25Q73.4-9.25 73.87-8.75 74.35-8.25 74.35-7.5L74.35-7.5Q74.35-6.6 73.55-5.33 72.75-4.05 71.32-2.78 69.9-1.5 67.55-0.6 65.2 0.3 62.5 0.3ZM59.1-14L59.1-14Q62.55-14.05 62.85-14.05L62.85-14.05Q63.6-14.05 63.95-14.95L63.95-14.95Q64.2-15.6 64.2-16.75L64.2-16.75Q64.2-19.9 62.3-19.9L62.3-19.9Q61.6-19.9 60.92-19.15 60.25-18.4 59.75-17.03 59.25-15.65 59.1-14ZM105.15-28.7L105.15-7.5Q105.15-3.45 103.8-1.73 102.45 0 99.65 0L99.65 0Q96.45 0 95.25-2L95.25-2Q92 0.35 87.4 0.35L87.4 0.35Q83.5 0.35 80.9-2.88 78.3-6.1 78.3-11.7L78.3-11.7Q78.3-17.4 80.85-20.78 83.4-24.15 87.4-24.15L87.4-24.15Q91-24.15 94.15-21.85L94.15-21.85 94.15-28.25Q94.15-31.3 95.65-32.77 97.15-34.25 99.65-34.25L99.65-34.25Q102.4-34.25 103.77-33.15 105.15-32.05 105.15-28.7L105.15-28.7ZM94.25-7.2L94.25-7.2 94.2-16.55Q93.35-17.95 92-17.95L92-17.95Q91.15-17.95 90.47-17 89.8-16.05 89.45-14.65 89.1-13.25 89.1-11.7L89.1-11.7Q89.1-9.4 89.85-7.6 90.6-5.8 91.95-5.8L91.95-5.8Q92.2-5.8 92.45-5.85 92.7-5.9 92.9-5.98 93.1-6.05 93.3-6.18 93.5-6.3 93.65-6.45 93.8-6.6 93.95-6.8 94.1-7 94.25-7.2ZM109.59-30.8L109.59-30.8Q109.59-32.45 111.02-33.52 112.44-34.6 115.04-34.6L115.04-34.6Q120.49-34.6 120.49-30.8L120.49-30.8Q120.49-28.7 119.12-27.85 117.74-27 115.04-27L115.04-27Q112.69-27 111.14-27.9 109.59-28.8 109.59-30.8ZM120.44-18.35L120.44-5.35Q120.44-2.35 119.19-1.18 117.94 0 114.79 0L114.79 0Q111.84 0 110.77-1.38 109.69-2.75 109.69-5.9L109.69-5.9 109.69-18.2Q109.69-20.75 111.07-22.3 112.44-23.85 114.74-23.85L114.74-23.85Q117.44-23.85 118.94-22.68 120.44-21.5 120.44-18.35L120.44-18.35ZM136.74-24.2L136.74-24.2Q141.39-24.2 144.49-22.3 147.59-20.4 147.59-18.15L147.59-18.15Q147.59-17.5 147.04-16.95 146.49-16.4 145.64-16.4L145.64-16.4Q144.89-16.4 143.99-16.93 143.09-17.45 142.29-18.05 141.49-18.65 140.19-19.15 138.89-19.65 137.44-19.65L137.44-19.65Q135.49-19.65 135.49-18.45L135.49-18.45Q135.49-17.6 136.49-17.1 137.49-16.6 139.42-16.05 141.34-15.5 142.34-15L142.34-15Q146.09-13.55 147.49-11.88 148.89-10.2 148.89-7.45L148.89-7.45Q148.89-6.1 148.14-4.78 147.39-3.45 145.89-2.27 144.39-1.1 141.81-0.38 139.24 0.35 135.94 0.35L135.94 0.35Q129.49 0.35 126.29-2.6L126.29-2.6Q124.74-4.05 124.74-5.6L124.74-5.6Q124.74-6.55 125.37-7.1 125.99-7.65 127.14-7.65L127.14-7.65Q128.29-7.65 130.64-6.53 132.99-5.4 134.99-5.4L134.99-5.4Q137.74-5.4 137.74-6.75L137.74-6.75Q137.74-7.45 136.29-7.88 134.84-8.3 132.49-8.9 130.14-9.5 128.74-10.4L128.74-10.4Q126.54-11.35 125.67-12.78 124.79-14.2 124.79-16.25L124.79-16.25Q124.79-19.75 128.12-21.98 131.44-24.2 136.74-24.2ZM154.59-10.7L154.59-10.7 154.59-16.6Q153.34-16.65 152.59-17.03 151.84-17.4 151.51-18 151.19-18.6 151.19-19.5L151.19-19.5Q151.19-22.35 154.64-22.6L154.64-22.6 154.64-27.25Q154.64-29.15 157.39-30.68 160.14-32.2 162.84-32.2L162.84-32.2Q164.49-32.2 164.99-31.25 165.49-30.3 165.49-28.4L165.49-28.4 165.54-22.65 166.89-22.65Q169.64-22.65 170.66-21.93 171.69-21.2 171.69-19.3L171.69-19.3Q171.69-18.5 171.39-17.95 171.09-17.4 170.41-17.1 169.74-16.8 168.79-16.68 167.84-16.55 166.44-16.55L166.44-16.55 165.54-16.55 165.54-11.05Q165.54-10.25 165.61-9.73 165.69-9.2 165.84-8.9 165.99-8.6 166.26-8.5 166.54-8.4 166.94-8.4L166.94-8.4Q167.54-8.4 167.94-8.83 168.34-9.25 168.56-9.78 168.79-10.3 169.16-10.73 169.54-11.15 170.04-11.15L170.04-11.15Q171.19-11.15 171.81-10.6 172.44-10.05 172.44-9.25L172.44-9.25Q172.44-7.9 171.91-6.35 171.39-4.8 170.39-3.35 169.39-1.9 167.61-0.95 165.84 0 163.64 0L163.64 0Q158.69 0 156.64-2.5 154.59-5 154.59-10.7ZM185.34 0.3L185.34 0.3Q181.39 0.3 178.79-2.93 176.19-6.15 176.19-11.75L176.19-11.75Q176.19-17.45 178.76-20.83 181.34-24.2 185.34-24.2L185.34-24.2Q189.39-24.2 192.84-21.35L192.84-21.35Q194.19-23.85 197.19-23.85L197.19-23.85Q199.89-23.85 201.39-22.68 202.89-21.5 202.89-18.35L202.89-18.35 202.89-5.35Q202.89-2.35 201.64-1.18 200.39 0 197.24 0L197.24 0Q193.94 0 192.89-1.85L192.89-1.85Q189.69 0.3 185.34 0.3ZM192.14-7.2L192.14-16.55Q191.29-18 189.94-18L189.94-18Q188.64-18 187.84-16.1 187.04-14.2 187.04-11.75L187.04-11.75Q187.04-9.45 187.79-7.65 188.54-5.85 189.89-5.85L189.89-5.85Q191.29-5.85 192.14-7.2L192.14-7.2ZM210.08-10.7L210.08-10.7 210.08-16.6Q208.83-16.65 208.08-17.03 207.33-17.4 207.01-18 206.68-18.6 206.68-19.5L206.68-19.5Q206.68-22.35 210.13-22.6L210.13-22.6 210.13-27.25Q210.13-29.15 212.88-30.68 215.63-32.2 218.33-32.2L218.33-32.2Q219.98-32.2 220.48-31.25 220.98-30.3 220.98-28.4L220.98-28.4 221.03-22.65 222.38-22.65Q225.13-22.65 226.16-21.93 227.18-21.2 227.18-19.3L227.18-19.3Q227.18-18.5 226.88-17.95 226.58-17.4 225.91-17.1 225.23-16.8 224.28-16.68 223.33-16.55 221.93-16.55L221.93-16.55 221.03-16.55 221.03-11.05Q221.03-10.25 221.11-9.73 221.18-9.2 221.33-8.9 221.48-8.6 221.76-8.5 222.03-8.4 222.43-8.4L222.43-8.4Q223.03-8.4 223.43-8.83 223.83-9.25 224.06-9.78 224.28-10.3 224.66-10.73 225.03-11.15 225.53-11.15L225.53-11.15Q226.68-11.15 227.31-10.6 227.93-10.05 227.93-9.25L227.93-9.25Q227.93-7.9 227.41-6.35 226.88-4.8 225.88-3.35 224.88-1.9 223.11-0.95 221.33 0 219.13 0L219.13 0Q214.18 0 212.13-2.5 210.08-5 210.08-10.7ZM244.38-24.2L244.38-24.2Q249.03-24.2 252.13-22.3 255.23-20.4 255.23-18.15L255.23-18.15Q255.23-17.5 254.68-16.95 254.13-16.4 253.28-16.4L253.28-16.4Q252.53-16.4 251.63-16.93 250.73-17.45 249.93-18.05 249.13-18.65 247.83-19.15 246.53-19.65 245.08-19.65L245.08-19.65Q243.13-19.65 243.13-18.45L243.13-18.45Q243.13-17.6 244.13-17.1 245.13-16.6 247.06-16.05 248.98-15.5 249.98-15L249.98-15Q253.73-13.55 255.13-11.88 256.53-10.2 256.53-7.45L256.53-7.45Q256.53-6.1 255.78-4.78 255.03-3.45 253.53-2.27 252.03-1.1 249.46-0.38 246.88 0.35 243.58 0.35L243.58 0.35Q237.13 0.35 233.93-2.6L233.93-2.6Q232.38-4.05 232.38-5.6L232.38-5.6Q232.38-6.55 233.01-7.1 233.63-7.65 234.78-7.65L234.78-7.65Q235.93-7.65 238.28-6.53 240.63-5.4 242.63-5.4L242.63-5.4Q245.38-5.4 245.38-6.75L245.38-6.75Q245.38-7.45 243.93-7.88 242.48-8.3 240.13-8.9 237.78-9.5 236.38-10.4L236.38-10.4Q234.18-11.35 233.31-12.78 232.43-14.2 232.43-16.25L232.43-16.25Q232.43-19.75 235.76-21.98 239.08-24.2 244.38-24.2Z" opacity="1" transform="matrix(1,0,0,1,0,0)" fill="#f0fbff" class="wordmark-text-0" data-fill-palette-color="primary" id="text-0"></path></svg></g></svg></g></svg></g></svg></g><g><svg viewBox="0 0 107.84037607403278 107.84037607403278" height="107.84037607403278" width="107.84037607403278"><g><svg></svg></g><g id="icon-0"><svg viewBox="0 0 107.84037607403278 107.84037607403278" height="107.84037607403278" width="107.84037607403278"><g><rect width="98.05486046731498" height="98.05486046731498" x="4.892757803358897" y="4.892757803358897" fill="#ffffff" data-fill-palette-color="accent"></rect><rect width="98.05486046731498" height="98.05486046731498" x="9.78551560671779" y="3.552713678800501e-15" fill="#ffffff" opacity="0.5" data-fill-palette-color="accent"></rect></g><g transform="matrix(1,0,0,1,13.979308009596842,21.890034473156312)"><svg viewBox="0 0 79.88176005483909 64.06030712772015" height="64.06030712772015" width="79.88176005483909"><g><svg xmlns="http://www.w3.org/2000/svg" data-name="Layer 1" viewBox="1.498066021909912 11.109986736043425 96.99969315847628 77.787847072483" x="0" y="0" height="64.06030712772015" width="79.88176005483909" class="icon-cg-0" data-fill-palette-color="quaternary" id="cg-0"><path d="M31 15.34a14.7 14.7 0 0 0 0 20.45L47.9 52a3 3 0 0 0 4.2 0L69 35.75a14.72 14.72 0 0 0 0-20.41 12.27 12.27 0 0 0-8.89-3.73A15.73 15.73 0 0 0 50 15.38c-3.17-2.84-6.18-4.27-9-4.27A13.89 13.89 0 0 0 31 15.34Zm20.1 3.07A12.67 12.67 0 0 1 60 14.61H60a9.34 9.34 0 0 1 6.77 2.83 11.72 11.72 0 0 1 0 16.19L50 49.88 33.19 33.66a11.68 11.68 0 0 1 0-16.22 10.92 10.92 0 0 1 7.87-3.32c2.21 0 4.91 1.49 7.81 4.31A1.62 1.62 0 0 0 51.15 18.41Z" fill="#032171" data-fill-palette-color="quaternary"></path><path d="M5.72 61.26a5.75 5.75 0 0 0 2.45 3.59L26.51 77l2.07 10.66A1.5 1.5 0 0 0 30 88.89a1.44 1.44 0 0 0 0.3 0l15.73-3.24a1.5 1.5 0 0 0 1.15-1.85l-6-22.71a5.7 5.7 0 0 0-1.92-2.92L26.84 47.47a5 5 0 0 0-6.69 0.25l0 0a5 5 0 0 0-0.2 6.73L25 60.24l-2.37 0.93-7.88-6.6L11.4 40.25a5 5 0 0 0-6.06-3.71 4.91 4.91 0 0 0-3.73 5.83Zm0.36-21.81a2.12 2.12 0 0 1 0.46-0.05 2 2 0 0 1 1.95 1.54L12 55.75a1.5 1.5 0 0 0 0.5 0.81L21.4 64a1.5 1.5 0 0 0 1.51 0.25l5.19-2a1.5 1.5 0 0 0 0.58-2.39l-6.5-7.37a1.94 1.94 0 0 1 0.06-2.62l0 0a1.93 1.93 0 0 1 2.63-0.11l12.47 10.7a2.75 2.75 0 0 1 0.94 1.4L43.92 83 31.23 85.61l-1.9-9.78a1.5 1.5 0 0 0-0.64-1L9.83 62.35a2.77 2.77 0 0 1-1.18-1.73L4.54 41.73A1.93 1.93 0 0 1 6.07 39.45Z" fill="#032171" data-fill-palette-color="quaternary"></path><path d="M94.58 36.52a5 5 0 0 0-6 3.73L85.24 54.57l-7.88 6.6L75 60.24l5.08-5.77a4.94 4.94 0 0 0-0.2-6.73l0 0a5 5 0 0 0-6.69-0.25L60.77 58.1a5.77 5.77 0 0 0-2 3l-6 22.69a1.5 1.5 0 0 0 1.15 1.85l15.73 3.24a1.44 1.44 0 0 0 0.3 0 1.5 1.5 0 0 0 1.47-1.21L73.49 77 91.83 64.85a5.75 5.75 0 0 0 2.45-3.59l4.11-18.89A4.93 4.93 0 0 0 94.58 36.52Zm0.88 5.21L91.35 60.62a2.77 2.77 0 0 1-1.18 1.73L71.31 74.87a1.5 1.5 0 0 0-0.64 1l-1.9 9.78L56.08 83l5.62-21.13a2.82 2.82 0 0 1 1-1.45L75.11 49.75a1.94 1.94 0 0 1 2.63 0.11l0 0a1.94 1.94 0 0 1 0.06 2.62l-6.5 7.37a1.5 1.5 0 0 0 0.58 2.39l5.19 2A1.51 1.51 0 0 0 78.6 64l8.94-7.49a1.5 1.5 0 0 0 0.5-0.81l3.48-14.81A2 2 0 0 1 94 39.47 1.91 1.91 0 0 1 95.46 41.73Z" fill="#032171" data-fill-palette-color="quaternary"></path></svg></g></svg></g></svg></g></svg></g></svg></g><defs></defs></svg><rect width="395.52" height="82.62145324556637" fill="none" stroke="none" visibility="hidden"></rect></g></svg></g></svg>